<svg width="24" height="24" viewBox="0 0 24 24" fill="none" xmlns="http://www.w3.org/2000/svg">
<path d="M4.57557 5.71735L4.5756 5.71732C5.5027 4.79001 6.7306 4.22444 8.0379 4.12258C9.34521 4.02073 10.6459 4.38929 11.7054 5.16182L11.9989 5.37577L12.2931 5.1629C13.4126 4.35293 14.7959 3.99385 16.168 4.15704C17.5401 4.32022 18.8006 4.99373 19.6989 6.04367C20.5972 7.09362 21.0676 8.44313 21.0165 9.82397C20.9654 11.2045 20.3968 12.5153 19.4238 13.4959C19.4236 13.4961 19.4233 13.4964 19.4231 13.4966L13.7675 19.1522C13.7675 19.1522 13.7675 19.1522 13.7674 19.1523C13.2986 19.6209 12.6629 19.8842 12 19.8842C11.3371 19.8842 10.7013 19.6209 10.2325 19.1522L4.57557 13.4963C3.5442 12.4648 2.96478 11.0659 2.96478 9.60731C2.96478 8.14859 3.54426 6.74873 4.57557 5.71735Z" fill="#9B9BFF" stroke="#9B9BFF"/>
</svg>
