<svg width="30" height="30" viewBox="0 0 30 30" fill="none" xmlns="http://www.w3.org/2000/svg">
<path d="M18.25 5H11.75C9.9606 5.00265 8.24525 5.71465 6.97995 6.97995C5.71465 8.24525 5.00265 9.9606 5 11.75V18.25C5.00265 20.0394 5.71465 21.7548 6.97995 23.0201C8.24525 24.2853 9.9606 24.9974 11.75 25H18.25C20.0394 24.9974 21.7548 24.2853 23.0201 23.0201C24.2853 21.7548 24.9974 20.0394 25 18.25V11.75C24.9974 9.9606 24.2853 8.24525 23.0201 6.97995C21.7548 5.71465 20.0394 5.00265 18.25 5ZM14.96 9.56C15.2086 9.56023 15.4481 9.65303 15.632 9.82029C15.8159 9.98756 15.9308 10.2173 15.9545 10.4647C15.9782 10.7122 15.9089 10.9595 15.7601 11.1586C15.6113 11.3577 15.3937 11.4943 15.1497 11.5417C14.9056 11.589 14.6527 11.5438 14.4403 11.4149C14.2278 11.2859 14.0709 11.0825 14.0003 10.8441C13.9297 10.6058 13.9503 10.3497 14.0582 10.1258C14.1661 9.90192 14.3536 9.72623 14.584 9.633C14.7066 9.58338 14.8378 9.55857 14.97 9.56H14.96ZM15.96 20.14C15.96 20.4052 15.8546 20.6596 15.6671 20.8471C15.4796 21.0346 15.2252 21.14 14.96 21.14C14.6948 21.14 14.4404 21.0346 14.2529 20.8471C14.0654 20.6596 13.96 20.4052 13.96 20.14V13.97C13.96 13.7048 14.0654 13.4504 14.2529 13.2629C14.4404 13.0754 14.6948 12.97 14.96 12.97C15.2252 12.97 15.4796 13.0754 15.6671 13.2629C15.8546 13.4504 15.96 13.7048 15.96 13.97V20.14Z" fill="#9B9BFF"/>
</svg>
