<svg width="114" height="43" viewBox="0 0 114 43" fill="none" xmlns="http://www.w3.org/2000/svg">
<path d="M28.1577 22.0901H26.1802V25.1003C26.1802 25.8547 26.03 26.5762 25.7297 27.2646C25.4001 27.9824 24.9204 28.6416 24.2905 29.2422C23.6606 29.8721 22.7598 30.3225 21.5879 30.5935C20.3867 30.8645 18.9036 31 17.1384 31L16.3254 31.0439C16.2375 31.0146 16.1606 31 16.0947 31C16.0068 31 15.9189 31 15.8311 31C15.7432 31 15.6516 31 15.5564 31C15.4685 31 15.3806 31 15.2927 31C15.1096 31 14.9448 31 14.7983 31C14.6152 31 14.4504 30.9854 14.304 30.9561C13.5496 30.8022 12.8281 30.5605 12.1396 30.231C11.4219 29.9014 10.7627 29.4985 10.1621 29.0225C9.53223 28.5391 9.06714 27.9678 8.76685 27.3086C8.46655 26.6787 8.31641 25.9609 8.31641 25.1553C8.31641 25.1553 8.31641 25.137 8.31641 25.1003C8.31641 25.1003 8.31641 25.0857 8.31641 25.0564C8.31641 25.0271 8.31641 24.9978 8.31641 24.9685C8.31641 24.9685 8.31641 24.9539 8.31641 24.9246C8.31641 24.4485 8.38965 23.9834 8.53613 23.5293C8.66064 23.1118 8.84375 22.7053 9.08545 22.3098C9.31982 21.8923 9.63477 21.5774 10.0303 21.365C10.3892 21.1892 10.8213 21.1013 11.3267 21.1013L13.3152 21.0574V11.9607H14.1172H33.2444V13.0044H26.1802V21.0574H30.0034C31.2339 21.0867 32.3435 21.3247 33.3323 21.7715C34.2917 22.2549 35.134 22.947 35.8591 23.8479C36.5476 24.7195 37.0713 25.7083 37.4302 26.8142C37.7891 27.9568 37.9685 29.2019 37.9685 30.5496C37.9685 30.6082 37.9685 30.6851 37.9685 30.7803C37.9685 30.8682 37.9685 30.9414 37.9685 31C37.9392 32.8604 37.4155 34.4937 36.3975 35.8999C35.3794 37.3428 33.8926 38.5439 31.937 39.5034C29.9888 40.4922 27.9343 41.2429 25.7737 41.7556C23.613 42.2683 21.3792 42.5393 19.072 42.5686C19.0427 42.5686 19.0281 42.5686 19.0281 42.5686C18.9988 42.5686 18.9841 42.5686 18.9841 42.5686C18.9548 42.5686 18.9402 42.5686 18.9402 42.5686C18.9036 42.5686 18.8706 42.5686 18.8413 42.5686C18.812 42.5686 18.7974 42.5686 18.7974 42.5686C18.7681 42.5686 18.7388 42.5686 18.7095 42.5686L17.8965 42.6125C15.2598 42.5833 12.9197 42.239 10.8762 41.5798C8.84009 40.95 7.11523 39.9722 5.70166 38.6465C4.26611 37.3574 3.15649 35.8303 2.3728 34.0652C1.59644 32.322 1.13135 30.3555 0.977539 28.1655C0.977539 28.1069 0.977539 28.0483 0.977539 27.9897C0.977539 27.9531 0.977539 27.9055 0.977539 27.8469C0.977539 27.7883 0.977539 27.7297 0.977539 27.6711C0.977539 27.6418 0.977539 27.5979 0.977539 27.5393C0.977539 27.2683 0.977539 26.9973 0.977539 26.7263C0.977539 26.4553 0.992188 26.1697 1.02148 25.8694C1.0874 25.4519 1.14966 25.0308 1.20825 24.606C1.26685 24.2178 1.34009 23.8296 1.42798 23.4414C1.69897 22.3574 2.05786 21.3064 2.50464 20.2883C2.95874 19.2703 3.50073 18.2668 4.13062 17.2781C4.7605 16.3186 5.46362 15.4763 6.23999 14.7512C6.99438 14.0334 7.82202 13.4365 8.7229 12.9604C8.7229 12.9604 8.73755 12.9604 8.76685 12.9604C8.76685 12.9604 8.78149 12.9421 8.81079 12.9055C8.84009 12.9055 8.86938 12.9055 8.89868 12.9055C8.89868 12.9055 8.91333 12.9055 8.94263 12.9055C8.97192 12.9055 9.00122 12.9055 9.03052 12.9055C9.06714 12.9055 9.1001 12.9055 9.12939 12.9055L9.9314 12.8616C9.9314 12.8909 9.9314 12.9055 9.9314 12.9055C9.9314 12.9055 9.94604 12.9055 9.97534 12.9055C10.0413 12.9055 10.1182 12.9055 10.2061 12.9055C10.2646 12.9421 10.3086 12.9751 10.3379 13.0044C10.3965 13.0337 10.4404 13.063 10.4697 13.0923C10.5063 13.1509 10.5247 13.2095 10.5247 13.2681C10.5247 13.2974 10.5247 13.312 10.5247 13.312C10.5247 13.3413 10.5247 13.356 10.5247 13.356C10.488 13.3853 10.4697 13.3999 10.4697 13.3999C10.4697 13.4365 10.4697 13.4695 10.4697 13.4988C10.4404 13.5281 10.4258 13.572 10.4258 13.6306C10.3965 13.6892 10.3672 13.7478 10.3379 13.8064C9.31982 14.2898 8.375 14.9526 7.50342 15.7949C6.60254 16.6592 5.79321 17.7212 5.07544 18.981C4.32837 20.2407 3.77173 21.5334 3.40552 22.8591C3.01733 24.2068 2.80859 25.5837 2.7793 26.99C2.75 27.1145 2.73535 27.2207 2.73535 27.3086C2.73535 27.3965 2.73535 27.488 2.73535 27.5833C2.73535 27.6125 2.73535 27.6565 2.73535 27.7151C2.73535 27.7737 2.75 27.8176 2.7793 27.8469C2.7793 27.9055 2.7793 27.9531 2.7793 27.9897C2.7793 28.0483 2.7793 28.1069 2.7793 28.1655C2.89648 29.9087 3.28467 31.5273 3.94385 33.0215C4.61035 34.5229 5.54419 35.9036 6.74536 37.1633C7.96851 38.4231 9.5542 39.3826 11.5024 40.0417C13.458 40.7009 15.7688 41.0488 18.4348 41.0854C20.2366 41.0488 21.8882 40.7778 23.3896 40.2725C24.8911 39.7598 26.2717 39.0237 27.5315 38.0642C28.762 37.1047 29.7068 36.0391 30.366 34.8672C31.0251 33.7026 31.3694 32.4136 31.3987 31C31.3987 30.9414 31.3987 30.8682 31.3987 30.7803C31.3987 30.7144 31.3987 30.6375 31.3987 30.5496C31.3987 30.4617 31.3987 30.3701 31.3987 30.2749C31.3987 30.2163 31.3987 30.1431 31.3987 30.0552C31.3987 29.8428 31.3987 29.634 31.3987 29.429C31.3987 28.7991 31.3694 28.1838 31.3108 27.5833C31.1936 26.8289 31.0142 26.1221 30.7725 25.4629C30.5015 24.6865 30.2305 24.042 29.9595 23.5293C29.6592 23.0166 29.3442 22.6577 29.0146 22.4526C28.9854 22.4233 28.9561 22.394 28.9268 22.3647C28.8682 22.3647 28.8206 22.3501 28.7839 22.3208C28.7546 22.2842 28.7253 22.2512 28.696 22.2219C28.6375 22.2219 28.5935 22.2073 28.5642 22.178C28.5056 22.1487 28.447 22.1194 28.3884 22.0901C28.2932 22.0901 28.2163 22.0901 28.1577 22.0901ZM19.3796 22.0901H13.1724C12.5132 22.0901 11.9749 22.1633 11.5574 22.3098C11.1033 22.4929 10.7883 22.7346 10.6125 23.0349C10.4294 23.3059 10.2939 23.5916 10.2061 23.8918C10.1182 24.2214 10.0742 24.551 10.0742 24.8806C10.0742 24.9099 10.0742 24.9392 10.0742 24.9685C10.0742 25.0271 10.0742 25.0894 10.0742 25.1553C10.1328 25.5435 10.25 25.9023 10.4258 26.2319C10.5796 26.5908 10.8066 26.9204 11.1069 27.2207C11.3779 27.521 11.6782 27.7773 12.0078 27.9897C12.3081 28.2241 12.623 28.4182 12.9526 28.572C13.0991 28.6599 13.2639 28.7332 13.447 28.7917C13.5935 28.887 13.7583 28.9492 13.9414 28.9785C14.0879 29.0078 14.238 29.0371 14.3918 29.0664C14.5383 29.125 14.6738 29.1543 14.7983 29.1543C15.7285 29.125 16.4939 29.0188 17.0945 28.8357C17.6951 28.6892 18.1418 28.4658 18.4348 28.1655C18.7717 27.8359 19.0134 27.4148 19.1599 26.9021C19.3064 26.426 19.3796 25.8438 19.3796 25.1553V22.0901ZM15.1499 13.0044V21.0574H19.3796V13.0044H15.1499ZM58.6672 33.1204H48.6367C48.3657 33.1204 48.1093 33.1204 47.8676 33.1204C47.7504 33.1057 47.6369 33.0984 47.5271 33.0984C47.4978 33.0984 47.4685 33.0984 47.4392 33.0984C47.3586 33.0984 47.278 33.1057 47.1975 33.1204C46.7727 33.179 46.4577 33.2668 46.2526 33.384C46.0402 33.4426 45.8901 33.5342 45.8022 33.6587C45.7143 33.8052 45.6704 33.97 45.6704 34.1531C45.6704 34.2117 45.685 34.2849 45.7143 34.3728C45.7436 34.4973 45.7729 34.6182 45.8022 34.7354C45.8315 34.8525 45.8754 34.9734 45.934 35.0979C45.9926 35.2151 46.0549 35.3359 46.1208 35.4604C46.1501 35.519 46.1794 35.563 46.2087 35.5923C46.2087 35.6509 46.2233 35.6948 46.2526 35.7241C46.2526 35.7827 46.2673 35.8267 46.2966 35.856C46.2966 35.9219 46.3112 35.9841 46.3405 36.0427C46.3991 36.1306 46.4431 36.2185 46.4724 36.3064C46.4724 36.4309 46.487 36.5518 46.5163 36.6689C46.5163 36.6982 46.531 36.7275 46.5603 36.7568C46.5603 36.7861 46.5603 36.8154 46.5603 36.8447C46.5603 36.8813 46.5603 36.9143 46.5603 36.9436C46.5603 36.9729 46.5603 37.0022 46.5603 37.0315C46.5603 37.5076 46.487 37.9287 46.3405 38.2949C46.194 38.6538 45.9523 38.9504 45.6154 39.1848C45.3225 39.4265 45.0075 39.6096 44.6706 39.7341C44.3117 39.8513 43.9528 39.9099 43.5939 39.9099L42.781 39.9539C42.7517 39.9246 42.737 39.9099 42.737 39.9099C42.7077 39.9099 42.6931 39.9099 42.6931 39.9099C42.6638 39.9099 42.6491 39.9099 42.6491 39.9099C42.2902 39.8806 41.946 39.8074 41.6164 39.6902C41.2868 39.5657 40.9572 39.3826 40.6276 39.1409C40.3273 38.9065 40.1149 38.6062 39.9904 38.24C39.8439 37.8811 39.7707 37.4783 39.7707 37.0315C39.7707 36.2771 39.8769 35.585 40.0893 34.9551C40.2944 34.3618 40.6386 33.8381 41.122 33.384C41.5688 32.9373 42.1071 32.593 42.737 32.3513C43.3669 32.1389 44.059 32.0327 44.8134 32.0327L53.8552 32.0767C54.7268 32.0474 55.5361 31.8533 56.2832 31.4944C57.0083 31.1648 57.6674 30.6558 58.2607 29.9673C58.8613 29.2788 59.3593 28.5281 59.7548 27.7151C60.1137 26.9021 60.3957 26.0781 60.6008 25.2432C60.6667 25.0601 60.7143 24.8806 60.7436 24.7048C60.7436 24.5217 60.7583 24.324 60.7875 24.1116C60.8168 23.9651 60.8315 23.8003 60.8315 23.6172C60.8315 23.4414 60.8315 23.262 60.8315 23.0789C60.8315 21.6726 60.7875 20.4568 60.6997 19.4314C60.5751 18.4426 60.392 17.6479 60.1503 17.0474C59.9453 16.4468 59.6779 15.9817 59.3483 15.6521C59.0187 15.3225 58.6269 15.1284 58.1728 15.0698C57.7553 15.0991 57.3964 15.1907 57.0961 15.3445C56.7666 15.5203 56.4956 15.729 56.2832 15.9707C56.0781 16.1831 55.9279 16.4688 55.8327 16.8276C55.7155 17.2158 55.6569 17.6333 55.6569 18.0801V31.0439H54.8439H48.7685V18.981C48.7685 18.3218 48.7246 17.7542 48.6367 17.2781C48.5488 16.7947 48.3986 16.4028 48.1862 16.1025C47.9738 15.8315 47.7175 15.6082 47.4172 15.4324C47.0876 15.2493 46.7141 15.1431 46.2966 15.1138C46.238 15.1431 46.1794 15.1577 46.1208 15.1577C46.0549 15.187 45.9926 15.2163 45.934 15.2456C45.8461 15.3115 45.7729 15.3591 45.7143 15.3884C45.6484 15.447 45.5861 15.5056 45.5275 15.5642C45.4104 15.6814 45.3078 15.7876 45.2199 15.8828C45.1247 16 45.0478 16.1355 44.9892 16.2893C44.9599 16.3479 44.9306 16.4065 44.9013 16.4651C44.8427 16.553 44.7841 16.6262 44.7255 16.6848C44.6889 16.7507 44.6706 16.813 44.6706 16.8716C44.6413 16.9302 44.6267 16.9888 44.6267 17.0474V31.0439H43.8247H42.737V17.0034C42.737 16.4321 42.8286 15.8938 43.0117 15.3884C43.1875 14.905 43.4584 14.4692 43.8247 14.0811C44.2128 13.6636 44.601 13.3047 44.9892 13.0044C45.3774 12.7334 45.7985 12.5063 46.2526 12.3232C46.3698 12.2646 46.5053 12.2061 46.6591 12.1475C46.7763 12.1182 46.9118 12.0889 47.0656 12.0596C47.1828 12.0229 47.3146 11.99 47.4611 11.9607C47.5856 11.9607 47.7065 11.9607 47.8237 11.9607H48.6367C49.0541 11.9607 49.4423 11.9607 49.8012 11.9607C50.1674 11.99 50.5007 12.0229 50.801 12.0596C51.0061 12.0889 51.2148 12.1328 51.4272 12.1914C51.603 12.25 51.7824 12.3232 51.9655 12.4111C52.0534 12.4404 52.1596 12.4734 52.2841 12.51C52.372 12.5686 52.4599 12.6272 52.5478 12.6858C52.7016 12.7737 52.8664 12.8799 53.0422 13.0044C53.196 13.1509 53.3608 13.301 53.5366 13.4548C53.6904 13.6013 53.8552 13.7808 54.031 13.9932C54.2141 14.2275 54.4118 14.4656 54.6242 14.7073C54.8586 14.3191 55.1589 13.9602 55.5251 13.6306C55.8547 13.301 56.2136 13.0154 56.6018 12.7737C57.0192 12.532 57.499 12.3379 58.041 12.1914C58.583 12.0376 59.1835 11.9607 59.8427 11.9607H60.6557C61.6738 11.9607 62.6003 12.1438 63.4353 12.51C64.2775 12.8982 65.0283 13.4512 65.6875 14.1689C66.3466 14.8867 66.8593 15.9817 67.2255 17.4539C67.5551 18.9553 67.7199 20.8303 67.7199 23.0789C67.7199 23.1082 67.7199 23.1375 67.7199 23.1667C67.7199 23.2253 67.7199 23.2729 67.7199 23.3096C67.6906 23.3389 67.676 23.3682 67.676 23.3975C67.676 23.4268 67.676 23.4707 67.676 23.5293C67.676 23.5879 67.676 23.6318 67.676 23.6611C67.676 23.7271 67.676 23.7747 67.676 23.804C67.676 23.8333 67.676 23.8479 67.676 23.8479C67.676 23.8772 67.676 23.9065 67.676 23.9358C67.5515 25.1077 67.2512 26.2173 66.7751 27.2646C66.2624 28.312 65.5703 29.3154 64.6987 30.2749C63.7978 31.2051 62.853 31.8972 61.8642 32.3513C60.8754 32.8274 59.8098 33.0654 58.6672 33.0654V33.1204ZM88.7262 21.0574C88.7262 20.0979 88.6383 19.197 88.4625 18.3547C88.2501 17.5417 87.9352 16.8057 87.5177 16.1465C87.1295 15.4873 86.4997 14.9783 85.6281 14.6194C84.7272 14.2605 83.5883 14.0664 82.2113 14.0371C82.1747 14.0371 82.1417 14.0371 82.1124 14.0371C82.0539 14.0371 81.9953 14.0371 81.9367 14.0371C81.9074 14.0371 81.8927 14.0371 81.8927 14.0371C81.8634 14.0371 81.8488 14.0371 81.8488 14.0371C81.8488 14.0664 81.8488 14.0811 81.8488 14.0811C81.8195 14.0811 81.8048 14.0811 81.8048 14.0811C80.904 14.1689 80.047 14.3777 79.234 14.7073C78.3991 15.0369 77.5897 15.502 76.8061 16.1025C76.059 16.6738 75.4584 17.3184 75.0043 18.0361C74.5282 18.7612 74.2133 19.5266 74.0595 20.3323C74.3305 20.0906 74.6308 19.8672 74.9604 19.6621C75.2899 19.479 75.6195 19.3289 75.9491 19.2117C76.1908 19.1238 76.4325 19.0469 76.6742 18.981C76.9159 18.9517 77.154 18.9224 77.3883 18.8931C77.5128 18.8638 77.6337 18.8491 77.7509 18.8491C77.8681 18.8491 77.9889 18.8491 78.1134 18.8491L78.9264 18.8052C78.9264 18.8345 78.9411 18.8491 78.9704 18.8491C78.9704 18.8491 78.985 18.8491 79.0143 18.8491C79.82 18.8491 80.5963 18.9993 81.3434 19.2996C82.0978 19.5999 82.8046 20.0356 83.4638 20.6069C84.1522 21.1782 84.6649 21.8374 85.0019 22.5845C85.3314 23.3682 85.4962 24.2251 85.4962 25.1553C85.4962 25.8145 85.4047 26.4114 85.2216 26.946C85.0092 27.488 84.7235 27.9861 84.3646 28.4402C84.0058 28.887 83.6322 29.2751 83.244 29.6047C82.8192 29.9343 82.3834 30.22 81.9367 30.4617C81.7243 30.5789 81.5155 30.6667 81.3104 30.7253C81.0687 30.8206 80.8417 30.8975 80.6293 30.9561C80.4242 30.9854 80.2301 31 80.047 31C79.8346 31 79.6405 31 79.4647 31L78.6518 31.0439C77.4213 31.0146 76.3556 30.8059 75.4547 30.4177C74.5246 30.0588 73.8068 29.4583 73.3014 28.616C72.7594 27.803 72.3529 26.9497 72.0819 26.0562C71.8109 25.1553 71.6754 24.2068 71.6754 23.2107C71.6754 23.2107 71.6754 23.196 71.6754 23.1667C71.6754 23.1667 71.6754 23.1521 71.6754 23.1228C71.6754 23.1228 71.6754 23.1082 71.6754 23.0789C71.6754 21.072 72.005 19.3472 72.6642 17.9043C73.2941 16.498 74.2536 15.3738 75.5426 14.5315C76.8683 13.6599 78.2929 13.0154 79.8163 12.5979C81.3178 12.1731 82.9401 11.9607 84.6833 11.9607H85.4962C86.6022 11.9607 87.591 12.0229 88.4625 12.1475C89.3048 12.2646 90.0263 12.4441 90.6269 12.6858C91.2201 12.8982 91.7877 13.1985 92.3297 13.5867C92.8424 13.9749 93.3222 14.4253 93.7689 14.938V11.9607H94.5819H113.665V13.0044H107.678V31L101.646 31.0439H100.833V13.0044H95.5707V31.0439H94.7577H88.7262V21.0574ZM74.5099 24.7048C74.5099 24.7341 74.5099 24.7634 74.5099 24.7927C74.5099 24.8513 74.5099 24.9099 74.5099 24.9685C74.5099 25.2981 74.5539 25.5984 74.6417 25.8694C74.7077 26.1404 74.8139 26.3967 74.9604 26.6384C75.1435 26.8728 75.3375 27.0815 75.5426 27.2646C75.755 27.4478 75.9674 27.6125 76.1798 27.759C76.2091 27.759 76.2384 27.759 76.2677 27.759C76.297 27.7883 76.3263 27.8176 76.3556 27.8469C76.3849 27.8762 76.4289 27.8909 76.4874 27.8909C76.5167 27.9202 76.5497 27.9348 76.5863 27.9348C76.6449 27.9714 76.7035 28.0044 76.7621 28.0337C76.8207 28.063 76.8939 28.0776 76.9818 28.0776C77.1942 27.9824 77.4066 27.8176 77.619 27.5833C77.7948 27.3416 77.956 27.0413 78.1024 26.6824C78.2562 26.3235 78.3808 25.9316 78.476 25.5068C78.5639 25.1187 78.6225 24.7012 78.6518 24.2544C78.6518 24.2544 78.6518 24.2397 78.6518 24.2104C78.6518 24.2104 78.6518 24.1921 78.6518 24.1555C78.6518 24.1555 78.6518 24.1409 78.6518 24.1116C78.6518 23.8772 78.6078 23.6538 78.5199 23.4414C78.4247 23.2583 78.3039 23.0642 78.1574 22.8591C77.9743 22.676 77.7948 22.5112 77.619 22.3647C77.4066 22.2402 77.1796 22.1633 76.9379 22.134C76.5497 22.1633 76.2055 22.2402 75.9052 22.3647C75.5756 22.5112 75.3046 22.7053 75.0922 22.947C74.8871 23.1521 74.737 23.4048 74.6417 23.7051C74.5539 24.042 74.5099 24.3899 74.5099 24.7488V24.7048ZM97.0433 0.985352C97.6732 1.01465 98.2298 1.1355 98.7132 1.3479C99.4457 1.60425 100.043 2.21948 100.504 3.1936C100.746 3.75757 100.867 4.3728 100.867 5.03931C100.867 5.50073 100.793 5.98047 100.647 6.47852C100.486 6.93994 100.244 7.39038 99.9217 7.82983C99.5628 8.26196 99.204 8.55859 98.8451 8.71973C98.4203 8.96143 97.8197 9.08228 97.0433 9.08228C96.9554 9.06763 96.743 9.0603 96.4061 9.0603C96.0692 9.0603 95.7872 9.05298 95.5602 9.03833C94.652 8.92847 93.9159 8.54028 93.3519 7.87378C92.722 6.89966 92.4071 5.98413 92.4071 5.1272C92.4071 4.65112 92.4986 4.12378 92.6817 3.54517C92.7623 3.28149 92.9564 2.91528 93.264 2.44653C93.5716 1.97046 94.0221 1.60425 94.6153 1.3479C94.6813 1.32593 94.7691 1.29297 94.879 1.24902C94.9889 1.20508 95.1354 1.16113 95.3185 1.11719C95.4942 1.07324 95.7066 1.04028 95.9557 1.01831C96.2047 0.996338 96.5672 0.985352 97.0433 0.985352Z" fill="url(#paint0_linear_425_482)"/>
<defs>
<linearGradient id="paint0_linear_425_482" x1="28.75" y1="21.5625" x2="105.912" y2="46.9554" gradientUnits="userSpaceOnUse">
<stop stop-color="#9DACFF"/>
<stop offset="0.585" stop-color="#5D5D99"/>
<stop offset="0.955" stop-color="#9B9BFF"/>
</linearGradient>
</defs>
</svg>
