<svg width="105" height="26" viewBox="0 0 105 29" fill="none" xmlns="http://www.w3.org/2000/svg">
<path d="M15.7578 -0.0078125H24.1953L15.7188 9.03516L24.0781 28H16.3633L10.2891 14.8359L8.80469 16.3984V28H0.953125V-0.0078125H8.80469V14.2891C10.0547 12.987 11.2005 11.431 12.2422 9.62109C13.2839 7.8112 14.0911 6.08594 14.6641 4.44531C15.237 2.79167 15.6016 1.30729 15.7578 -0.0078125ZM39.3789 19.6016V8H46.5859V28H41.0977L39.9844 22.5117C39.9844 23.2669 39.8802 23.9831 39.6719 24.6602C39.4766 25.3242 39.151 25.9688 38.6953 26.5938C38.2396 27.2188 37.569 27.7135 36.6836 28.0781C35.8112 28.4557 34.763 28.6445 33.5391 28.6445C32.7448 28.6445 32.0156 28.5664 31.3516 28.4102C30.6875 28.2539 30.1146 28.0586 29.6328 27.8242C29.1641 27.5898 28.7409 27.2708 28.3633 26.8672C27.9857 26.4635 27.6797 26.0859 27.4453 25.7344C27.2109 25.3828 27.0091 24.9401 26.8398 24.4062C26.6706 23.8724 26.5469 23.4232 26.4688 23.0586C26.3906 22.681 26.3255 22.2122 26.2734 21.6523C26.2344 21.0794 26.2083 20.6562 26.1953 20.3828C26.1953 20.0964 26.1953 19.7122 26.1953 19.2305C26.1953 19.1784 26.1953 19.1393 26.1953 19.1133V8H33.3828V20.4023C33.3828 21.3789 33.6497 22.1602 34.1836 22.7461C34.7174 23.319 35.4271 23.6055 36.3125 23.6055C37.1328 23.6055 37.849 23.2604 38.4609 22.5703C39.0729 21.8802 39.3789 20.8906 39.3789 19.6016ZM64.2695 7.35547C68.5143 7.35547 70.6367 9.42578 70.6367 13.5664C70.6367 14.556 70.4674 15.4414 70.1289 16.2227C69.7904 16.9909 69.3346 17.5833 68.7617 18C68.2018 18.4036 67.5898 18.6706 66.9258 18.8008C66.2617 18.918 65.5781 18.8464 64.875 18.5859C64.1719 18.3255 63.5339 17.8893 62.9609 17.2773C63.7812 15.3112 64.0547 13.7682 63.7812 12.6484C63.5078 11.5286 62.7917 10.9688 61.6328 10.9688C60.9818 10.9688 60.4349 11.151 59.9922 11.5156C59.5495 11.8672 59.1784 12.5508 58.8789 13.5664C58.5794 14.582 58.4297 15.9297 58.4297 17.6094V28H51.2422V8L56.8672 7.80469L58.0391 12.6094C58.3255 10.9036 58.9505 9.60156 59.9141 8.70312C60.8776 7.80469 62.3294 7.35547 64.2695 7.35547ZM83.3984 7.35547C85.2604 7.35547 86.8229 7.49219 88.0859 7.76562C89.349 8.03906 90.3516 8.46224 91.0938 9.03516C91.8359 9.60807 92.3633 10.2852 92.6758 11.0664C92.9883 11.8477 93.1445 12.7982 93.1445 13.918V28H86.9922L86.2305 24.9141C85.7487 26.138 84.9089 27.0625 83.7109 27.6875C82.513 28.2995 81.1393 28.6055 79.5898 28.6055C77.4935 28.6055 75.8203 28.1172 74.5703 27.1406C73.3333 26.1641 72.7148 24.7969 72.7148 23.0391C72.7148 22.1667 72.8971 21.3854 73.2617 20.6953C73.6393 20.0052 74.1276 19.4518 74.7266 19.0352C75.3385 18.6055 76.0286 18.2214 76.7969 17.8828C77.5651 17.5443 78.3529 17.2839 79.1602 17.1016C79.9674 16.9062 80.7552 16.7109 81.5234 16.5156C82.2917 16.3073 82.9753 16.112 83.5742 15.9297C84.1732 15.7474 84.6549 15.513 85.0195 15.2266C85.3841 14.9271 85.5599 14.582 85.5469 14.1914C85.5469 13.6315 85.2539 13.1758 84.668 12.8242C84.082 12.4596 83.1771 12.2773 81.9531 12.2773C80.2604 12.2773 78.7826 12.7005 77.5195 13.5469C76.2565 14.3802 75.3776 15.5326 74.8828 17.0039C74.1016 15.7799 73.6979 14.5885 73.6719 13.4297C73.6458 12.2578 73.9714 11.2292 74.6484 10.3438C75.3255 9.44531 76.4193 8.72266 77.9297 8.17578C79.4401 7.62891 81.263 7.35547 83.3984 7.35547ZM82.1875 25.7539C83.125 25.7539 83.9844 25.4609 84.7656 24.875C85.5599 24.276 85.957 23.5013 85.957 22.5508V16.6719C85.957 16.4245 85.931 16.0664 85.8789 15.5977C85.6185 15.9232 85.1953 16.2617 84.6094 16.6133C84.0234 16.9648 83.4245 17.3034 82.8125 17.6289C82.2005 17.9414 81.6016 18.306 81.0156 18.7227C80.4297 19.1263 79.9479 19.6341 79.5703 20.2461C79.2057 20.8581 79.0234 21.5482 79.0234 22.3164C79.0234 23.3841 79.3099 24.224 79.8828 24.8359C80.4688 25.4479 81.237 25.7539 82.1875 25.7539ZM104.93 28H97.7422V1.80859L104.012 -0.0078125H104.93V28Z" fill="url(#paint0_linear_424_465)"/>
<defs>
<linearGradient id="paint0_linear_424_465" x1="26" y1="6.5" x2="101" y2="20.5" gradientUnits="userSpaceOnUse">
<stop stop-color="#9DACFF"/>
<stop offset="0.585" stop-color="#5D5D99"/>
<stop offset="0.955" stop-color="#9B9BFF"/>
</linearGradient>
</defs>
</svg>
