<svg width="306" height="413" viewBox="0 0 306 413" fill="none" xmlns="http://www.w3.org/2000/svg">
<path d="M40.4247 46.9207C41.3104 46.6182 41.9123 46.9325 42.2304 47.8637L46.9429 61.6611C47.1894 61.1204 47.5691 60.6356 48.082 60.2068C48.5872 59.7553 49.1691 59.4171 49.8278 59.1921C50.6454 58.9129 51.4492 58.8158 52.2391 58.9011C53.0213 58.9636 53.7479 59.1973 54.4187 59.6022C55.0896 60.0071 55.6971 60.5605 56.2411 61.2623C56.7852 61.9641 57.224 62.8034 57.5575 63.78C58.0152 65.12 58.2106 66.3974 58.1437 67.6122C58.0767 68.8271 57.7663 69.9602 57.2124 71.0117C56.6813 72.0554 55.9177 72.9756 54.9218 73.7722C53.9485 74.5612 52.7805 75.1883 51.4178 75.6538C50.1687 76.0804 48.9749 76.2979 47.8365 76.3063C46.6981 76.3147 45.6608 76.1364 44.7246 75.7715C43.7884 75.4065 42.9685 74.8623 42.2649 74.1389C41.584 73.4077 41.0613 72.5084 40.6967 71.4409C40.3399 70.3962 40.2536 69.5126 40.4381 68.7902C40.6302 68.0906 40.9875 67.6515 41.5099 67.4731C41.8278 67.3645 42.12 67.3661 42.3865 67.478C42.6679 67.5594 42.9305 67.66 43.1743 67.7796C43.0857 68.1142 43.043 68.5092 43.0464 68.9645C43.0498 69.4199 43.1406 69.9087 43.3191 70.4311C43.575 71.1806 43.9402 71.8041 44.4144 72.3015C44.9191 72.8138 45.4911 73.1891 46.1304 73.4273C46.7774 73.6881 47.4804 73.8158 48.2393 73.8102C49.021 73.7968 49.8206 73.6505 50.6382 73.3712C52.6141 72.6964 53.9873 71.5933 54.7578 70.0621C55.5509 68.5231 55.6101 66.7657 54.9352 64.7898C54.4465 63.3589 53.7675 62.3735 52.8983 61.8334C52.0291 61.2934 51.0835 61.1979 50.0614 61.547C49.4709 61.7487 48.9688 62.0977 48.555 62.5941C48.1335 63.0678 47.8754 63.5744 47.7807 64.1139L49.2119 68.3043C49.0685 68.404 48.9023 68.5115 48.7134 68.6267C48.5472 68.7342 48.3392 68.8306 48.0894 68.9159C47.1809 69.2262 46.5793 68.9498 46.2845 68.0868L43.585 60.1831L38.3045 61.9867C38.6425 63.5704 38.6615 65.111 38.3614 66.6083C38.0535 68.083 37.4337 69.4613 36.502 70.7433C35.5781 72.0479 34.3459 73.2296 32.8055 74.2883C31.265 75.3471 29.4386 76.2372 27.3264 76.9586C25.4187 77.6102 23.6153 78.0106 21.9163 78.1597C20.2251 78.3316 18.7066 78.2669 17.361 77.9657C16.0459 77.6794 14.9227 77.1753 13.9915 76.4536C13.0602 75.7319 12.4045 74.8146 12.0244 73.7017C11.5512 72.3163 11.6179 71.0635 12.2244 69.9433C12.8458 68.7927 14.0423 67.9149 15.8138 67.3098L18.3348 66.4487L17.9392 65.2904C17.4272 63.7915 17.1928 62.3625 17.2359 61.0037C17.2939 59.6143 17.5996 58.356 18.153 57.2286C18.729 56.0935 19.5299 55.0971 20.5558 54.2395C21.6044 53.3742 22.8554 52.6932 24.309 52.1968C25.7625 51.7003 27.1652 51.5002 28.5168 51.5965C29.8608 51.6701 31.1119 52.0289 32.2703 52.6731C33.4209 53.2946 34.4444 54.175 35.3408 55.3144C36.2599 56.4461 36.9987 57.8296 37.5573 59.4648L37.6736 59.8055L42.8519 58.0368L39.2681 47.544C39.4265 47.4138 39.6154 47.2986 39.8347 47.1983C40.0463 47.0753 40.243 46.9827 40.4247 46.9207ZM25.8452 70.617C25.1184 70.8652 24.4362 70.9841 23.7986 70.9736C23.1533 70.9404 22.5566 70.8272 22.0088 70.6339C21.4531 70.4179 20.9462 70.1218 20.4881 69.7457C20.0526 69.3619 19.6775 68.932 19.3629 68.4562L16.8759 69.3056C15.7858 69.678 15.0723 70.1879 14.7355 70.8356C14.4215 71.4754 14.4041 72.2041 14.6834 73.0218C14.9238 73.7258 15.3911 74.3144 16.0853 74.7874C16.7717 75.2377 17.6353 75.5387 18.6762 75.6904C19.7172 75.8421 20.9201 75.8371 22.285 75.6752C23.65 75.5133 25.1387 75.157 26.7512 74.6062C30.0445 73.4814 32.4654 71.9191 34.0141 69.9192C35.5778 67.8888 36.1449 65.5394 35.7153 62.871L29.5491 64.9771C29.614 65.5382 29.5916 66.1038 29.4819 66.6739C29.3723 67.2439 29.1638 67.7843 28.8564 68.2951C28.5489 68.8059 28.1463 69.2604 27.6483 69.6587C27.1503 70.0571 26.5493 70.3765 25.8452 70.617ZM34.8742 59.9628C34.0054 57.419 32.6796 55.6908 30.8969 54.778C29.1369 53.8575 27.1213 53.785 24.8501 54.5608C23.9644 54.8633 23.1556 55.3171 22.4239 55.922C21.7071 56.4966 21.1164 57.1802 20.6517 57.9729C20.2097 58.7579 19.9125 59.6329 19.7603 60.598C19.6307 61.5552 19.7064 62.5565 19.9873 63.6018C20.1036 62.9027 20.429 62.259 20.9635 61.6706C21.4981 61.0823 22.1628 60.6523 22.9577 60.3808C24.2523 59.9387 25.4289 59.9679 26.4876 60.4686C27.5689 60.9616 28.3678 61.7412 28.8842 62.8075L35.1186 60.6782L34.8742 59.9628ZM23.1457 62.7133C22.3053 63.0003 21.6944 63.5133 21.3127 64.2523C20.9538 64.9836 20.914 65.758 21.1933 66.5756C21.4725 67.3933 21.9778 67.9815 22.7091 68.3404C23.4553 68.6689 24.2485 68.6896 25.0889 68.4026C25.9065 68.1233 26.4873 67.6333 26.8312 66.9325C27.1901 66.2012 27.23 65.4268 26.9507 64.6092C26.6715 63.7916 26.1662 63.2033 25.4349 62.8444C24.7264 62.4777 23.9633 62.434 23.1457 62.7133Z" fill="url(#paint0_linear_226_437)"/>
<path d="M280.709 284.948C283.109 286.111 285.082 287.512 286.629 289.151C288.199 290.802 289.336 292.583 290.039 294.494C290.742 296.406 291.017 298.406 290.864 300.495C290.71 302.584 290.139 304.649 289.15 306.688C288.452 308.128 287.827 309.143 287.273 309.735C286.732 310.302 286.101 310.411 285.381 310.062C285.165 309.957 284.949 309.823 284.732 309.658C284.551 309.482 284.4 309.305 284.278 309.127C284.665 308.574 285.005 308.057 285.297 307.576C285.589 307.096 285.887 306.543 286.189 305.919C287.108 304.024 287.64 302.163 287.785 300.336C287.929 298.51 287.712 296.789 287.131 295.174C286.587 293.547 285.662 292.061 284.358 290.717C283.089 289.361 281.483 288.212 279.539 287.27C277.763 286.409 275.992 285.906 274.225 285.76C272.458 285.615 270.779 285.808 269.187 286.341C267.596 286.873 266.121 287.744 264.765 288.953C263.443 290.15 262.341 291.66 261.457 293.484C261.108 294.203 260.773 295.138 260.453 296.287C260.169 297.423 260.046 298.564 260.084 299.708C260.643 299.654 261.168 299.641 261.657 299.671C262.158 299.677 262.672 299.718 263.197 299.795C263.382 299.292 263.555 298.813 263.717 298.358C263.914 297.89 264.111 297.453 264.309 297.045C265.007 295.605 265.827 294.402 266.769 293.437C267.747 292.459 268.788 291.748 269.892 291.305C271.031 290.85 272.222 290.657 273.463 290.725C274.704 290.794 275.961 291.136 277.232 291.753C278.552 292.392 279.635 293.214 280.483 294.217C281.341 295.197 281.933 296.299 282.258 297.523C282.607 298.759 282.683 300.1 282.486 301.546C282.289 302.991 281.812 304.494 281.056 306.054C280.87 306.438 280.689 306.78 280.514 307.08C280.375 307.368 280.199 307.668 279.989 307.981C280.856 308.698 281.575 309.476 282.146 310.316C282.741 311.167 283.157 312.051 283.395 312.966C283.668 313.869 283.769 314.793 283.697 315.736C283.637 316.655 283.391 317.558 282.961 318.446C281.902 320.629 280.374 322.008 278.378 322.581C276.405 323.165 274.255 322.893 271.927 321.765C270.776 321.207 269.783 320.503 268.95 319.654C268.116 318.806 267.515 317.907 267.146 316.957C265.728 317.07 264.295 316.968 262.848 316.652C261.39 316.36 260.073 315.928 258.897 315.358C255.994 313.951 254.053 312.269 253.075 310.313C252.097 308.357 252.155 306.251 253.248 303.996C253.69 303.084 254.265 302.296 254.973 301.631C255.68 300.966 256.456 300.498 257.299 300.225C257.178 299.07 257.21 297.811 257.396 296.449C257.594 295.063 258.112 293.506 258.949 291.779C260.054 289.499 261.428 287.676 263.069 286.308C264.71 284.94 266.499 284 268.437 283.487C270.386 282.951 272.406 282.819 274.497 283.091C276.623 283.352 278.694 283.971 280.709 284.948ZM256 305.196C255.267 306.708 255.243 308.134 255.927 309.473C256.624 310.848 257.944 312.007 259.887 312.949C261.327 313.647 262.805 314.082 264.322 314.255C265.839 314.427 267.31 314.325 268.737 313.95C270.164 313.575 271.533 312.92 272.846 311.986C274.146 311.076 275.319 309.88 276.362 308.401C275.989 308.131 275.598 307.867 275.19 307.61C274.793 307.329 274.342 307.066 273.838 306.821C272.961 308.204 271.844 309.1 270.49 309.51C269.147 309.896 267.683 309.705 266.1 308.937C264.708 308.263 263.719 307.339 263.132 306.165C262.581 304.979 262.422 303.687 262.655 302.289C261.197 301.996 259.868 302.108 258.67 302.624C257.483 303.115 256.593 303.973 256 305.196ZM278.344 305.139C279.542 302.667 279.974 300.461 279.641 298.521C279.318 296.557 278.138 295.081 276.098 294.092C274.154 293.15 272.305 293.113 270.551 293.981C268.808 294.825 267.366 296.423 266.226 298.774C266.9 298.241 267.73 297.903 268.718 297.76C269.707 297.617 270.705 297.79 271.712 298.278C273.008 298.906 273.907 299.772 274.41 300.875C274.948 301.966 275.064 303.193 274.759 304.556C275.239 304.789 275.731 305.057 276.235 305.361C276.764 305.677 277.251 306.017 277.697 306.381C277.826 306.176 277.942 305.966 278.047 305.75C278.152 305.534 278.251 305.33 278.344 305.139ZM269.876 316.369C270.584 317.72 271.658 318.745 273.098 319.443C274.609 320.176 276.001 320.332 277.272 319.911C278.531 319.514 279.527 318.559 280.26 317.048C280.819 315.896 280.935 314.708 280.61 313.483C280.321 312.247 279.616 311.134 278.494 310.146C277.321 311.711 276.025 313.009 274.606 314.04C273.2 315.106 271.623 315.883 269.876 316.369ZM265.638 301.912C265.185 302.848 265.094 303.768 265.368 304.671C265.653 305.55 266.251 306.21 267.163 306.652C268.075 307.095 268.97 307.173 269.85 306.888C270.764 306.591 271.443 305.986 271.885 305.074C272.327 304.162 272.405 303.267 272.12 302.388C271.835 301.509 271.237 300.848 270.325 300.406C269.437 299.976 268.542 299.897 267.639 300.171C266.747 300.42 266.08 301.001 265.638 301.912Z" fill="url(#paint1_linear_226_437)"/>
<path d="M31.5561 286.611C31.8357 286.867 32.0688 287.163 32.2551 287.499C32.6512 288.212 32.4086 288.814 31.5273 289.303L28.4113 291.033L36.9212 306.361C36.7883 306.517 36.6333 306.658 36.4561 306.784C36.3115 306.919 36.1238 307.051 35.893 307.179C35.0537 307.645 34.4127 307.479 33.97 306.682L26.0193 292.361L18.1506 296.73L26.6605 312.058C26.5159 312.193 26.3713 312.328 26.2268 312.463C26.0822 312.598 25.8945 312.73 25.6637 312.858C24.8034 313.336 24.1519 313.176 23.7092 312.379L15.5838 297.743C15.2809 297.197 15.1843 296.702 15.294 296.257C15.413 295.779 15.7138 295.406 16.1964 295.138L31.5561 286.611ZM25.038 299.865C25.5836 299.562 26.107 299.491 26.6081 299.652C27.1302 299.801 27.5311 300.127 27.8107 300.631C28.1019 301.156 28.1728 301.679 28.0235 302.201C27.8835 302.691 27.5407 303.087 26.9951 303.39C26.4706 303.681 25.953 303.762 25.4426 303.634C24.9205 303.485 24.5138 303.148 24.2225 302.623C23.943 302.12 23.8778 301.607 24.0272 301.085C24.1765 300.562 24.5135 300.156 25.038 299.865ZM34.9211 294.378C35.4457 294.086 35.9585 294.021 36.4597 294.182C36.9818 294.332 37.3826 294.658 37.6622 295.162C37.9535 295.686 38.0244 296.21 37.8751 296.732C37.7351 297.221 37.4028 297.612 36.8782 297.903C36.3326 298.206 35.8046 298.293 35.2942 298.165C34.772 298.015 34.3654 297.678 34.0741 297.154C33.7945 296.65 33.7294 296.137 33.8787 295.615C34.0281 295.093 34.3755 294.681 34.9211 294.378Z" fill="url(#paint2_linear_226_437)"/>
<path d="M173.572 73.876C174.556 73.876 175.048 74.368 175.048 75.352V91.588H192.832C192.952 91.996 193.012 92.368 193.012 92.704C193.012 93.568 192.508 94 191.5 94H173.86C173.308 94 172.9 93.904 172.636 93.712C172.372 93.496 172.24 93.112 172.24 92.56V74.092C172.672 73.948 173.116 73.876 173.572 73.876ZM182.644 66.352C183.34 66.352 183.892 66.568 184.3 67C184.732 67.408 184.948 67.972 184.948 68.692C184.948 69.388 184.732 69.952 184.3 70.384C183.892 70.792 183.34 70.996 182.644 70.996C181.948 70.996 181.384 70.792 180.952 70.384C180.52 69.952 180.304 69.388 180.304 68.692C180.304 67.972 180.52 67.408 180.952 67C181.384 66.568 181.948 66.352 182.644 66.352Z" fill="url(#paint3_linear_226_437)"/>
<path d="M205.601 218.273C206.764 218.727 207.106 219.565 206.629 220.787L195.958 248.105C195.726 248.083 195.464 248.049 195.173 248.004C194.911 247.971 194.616 247.89 194.288 247.762C193.096 247.296 192.721 246.497 193.164 245.364L197.407 234.5L190.477 231.793C189.459 233.697 188.152 235.282 186.558 236.549C184.976 237.786 183.159 238.656 181.107 239.16C179.043 239.694 176.771 239.837 174.291 239.59C171.811 239.343 169.185 238.678 166.413 237.595C163.909 236.617 161.728 235.473 159.869 234.163C157.999 232.883 156.508 231.51 155.397 230.045C154.304 228.622 153.593 227.142 153.266 225.606C152.939 224.069 153.06 222.571 153.631 221.11C154.341 219.292 155.487 218.074 157.068 217.455C158.691 216.817 160.665 216.953 162.99 217.861L166.299 219.153L166.893 217.633C167.661 215.666 168.652 214.009 169.865 212.662C171.12 211.297 172.514 210.278 174.048 209.606C175.611 208.946 177.284 208.62 179.067 208.63C180.88 208.651 182.74 209.034 184.647 209.779C186.555 210.524 188.156 211.527 189.45 212.788C190.755 214.02 191.72 215.462 192.346 217.115C192.983 218.738 193.268 220.515 193.2 222.447C193.163 224.39 192.725 226.435 191.886 228.581L191.712 229.028L198.508 231.683L203.887 217.912C204.16 217.916 204.452 217.961 204.761 218.048C205.083 218.105 205.363 218.18 205.601 218.273ZM170.361 229.861C169.408 229.489 168.61 229.023 167.97 228.464C167.341 227.874 166.831 227.246 166.439 226.577C166.059 225.879 165.798 225.142 165.655 224.364C165.542 223.599 165.53 222.838 165.619 222.083L162.355 220.808C160.924 220.249 159.758 220.154 158.858 220.524C157.988 220.906 157.343 221.633 156.924 222.706C156.563 223.63 156.532 224.631 156.832 225.711C157.144 226.76 157.765 227.81 158.694 228.86C159.624 229.91 160.853 230.94 162.383 231.95C163.912 232.959 165.735 233.877 167.851 234.704C172.173 236.392 175.983 236.884 179.282 236.18C182.622 235.458 185.221 233.553 187.079 230.466L178.987 227.304C178.57 227.932 178.061 228.489 177.458 228.975C176.856 229.461 176.179 229.832 175.426 230.088C174.674 230.343 173.872 230.46 173.022 230.437C172.172 230.414 171.285 230.222 170.361 229.861ZM188.725 226.78C190.029 223.441 190.166 220.54 189.136 218.077C188.135 215.625 186.145 213.816 183.164 212.652C182.002 212.198 180.788 211.964 179.522 211.951C178.297 211.919 177.107 212.107 175.952 212.515C174.826 212.934 173.771 213.569 172.785 214.421C171.83 215.285 171.045 216.369 170.432 217.676C171.152 217.064 172.037 216.688 173.088 216.549C174.138 216.41 175.185 216.544 176.229 216.951C177.928 217.615 179.101 218.657 179.748 220.078C180.425 221.511 180.568 222.992 180.177 224.523L188.358 227.719L188.725 226.78ZM174.413 219.489C173.31 219.058 172.246 219.055 171.222 219.479C170.227 219.915 169.52 220.669 169.101 221.742C168.682 222.815 168.69 223.849 169.126 224.844C169.604 225.821 170.394 226.524 171.497 226.955C172.57 227.374 173.583 227.375 174.536 226.957C175.531 226.521 176.238 225.767 176.657 224.694C177.076 223.621 177.068 222.587 176.632 221.592C176.226 220.609 175.486 219.908 174.413 219.489Z" fill="url(#paint4_linear_226_437)"/>
<path d="M48.1897 168.834C49.5963 168.771 50.8545 168.971 51.9644 169.433C53.0729 169.864 53.9982 170.495 54.7402 171.327C55.5143 172.157 56.1023 173.123 56.5042 174.226C56.9381 175.328 57.1831 176.502 57.2391 177.749C57.3225 179.603 57.0716 181.504 56.4865 183.452C55.8999 185.369 55.2277 187.161 54.4699 188.828L61.9503 188.492C62.1317 188.964 62.2339 189.456 62.2569 189.968C62.3043 191.023 61.6567 191.58 60.314 191.641L52.9295 191.973L47.6279 202.301C47.471 202.372 47.3285 202.411 47.2007 202.416C47.1048 202.421 47.0089 202.425 46.913 202.429C46.3375 202.455 45.8508 202.317 45.4529 202.015C45.0563 201.744 44.8466 201.353 44.8236 200.842C44.8078 200.49 44.9322 200.052 45.1969 199.528C45.4936 199.002 45.8492 198.361 46.2637 197.606L49.1413 192.143L33.1734 192.861C32.4382 192.894 31.889 192.79 31.5258 192.55C31.1613 192.278 30.9625 191.775 30.9294 191.04L29.8237 166.44C30.3266 166.226 30.8817 166.105 31.4891 166.077C32.7998 166.018 33.4867 166.692 33.5499 168.099L34.522 189.725L45.7427 189.221C44.0433 187.759 42.6558 186.108 41.58 184.267C40.5348 182.392 39.9662 180.431 39.8742 178.385C39.8124 177.011 39.9642 175.755 40.3295 174.617C40.6947 173.479 41.243 172.494 41.9743 171.66C42.7056 170.826 43.5887 170.162 44.6235 169.667C45.6903 169.171 46.879 168.893 48.1897 168.834ZM53.6099 178.248C53.5237 176.33 53.0391 174.814 52.1563 173.701C51.2719 172.556 49.9666 172.022 48.2404 172.099C46.7059 172.168 45.5149 172.75 44.6672 173.845C43.85 174.907 43.4846 176.397 43.5708 178.315C43.6742 180.617 44.3917 182.683 45.7233 184.513C47.0867 186.341 48.7286 187.949 50.6488 189.336C51.4706 187.666 52.1922 185.904 52.8136 184.05C53.435 182.196 53.7004 180.262 53.6099 178.248Z" fill="url(#paint5_radial_226_437)"/>
<path d="M164.944 317.24C165.051 317.624 165.104 317.923 165.104 318.136C165.104 318.925 164.624 319.32 163.664 319.32H158.672V325.752C159.099 325.219 159.664 324.813 160.368 324.536C161.093 324.237 161.861 324.088 162.672 324.088C163.504 324.088 164.251 324.237 164.912 324.536C165.595 324.835 166.171 325.261 166.64 325.816C167.131 326.349 167.504 327 167.76 327.768C168.016 328.536 168.144 329.379 168.144 330.296C168.144 332.344 167.728 334.211 166.896 335.896C166.064 337.581 164.88 339.011 163.344 340.184C161.829 341.379 159.995 342.296 157.84 342.936C155.685 343.597 153.296 343.928 150.672 343.928C147.813 343.928 145.232 343.544 142.928 342.776C140.624 342.008 138.651 340.92 137.008 339.512C135.387 338.104 134.139 336.408 133.264 334.424C132.389 332.44 131.952 330.232 131.952 327.8C131.952 326.563 132.037 325.453 132.208 324.472C132.4 323.469 132.635 322.584 132.912 321.816C133.211 321.027 133.531 320.344 133.872 319.768C134.235 319.192 134.587 318.701 134.928 318.296C135.312 317.827 135.685 317.464 136.048 317.208C136.432 316.931 136.827 316.792 137.232 316.792C137.851 316.792 138.256 317.187 138.448 317.976C137.915 318.424 137.403 318.957 136.912 319.576C136.421 320.173 135.995 320.877 135.632 321.688C135.269 322.477 134.971 323.384 134.736 324.408C134.523 325.411 134.416 326.541 134.416 327.8C134.416 329.912 134.8 331.821 135.568 333.528C136.336 335.235 137.424 336.696 138.832 337.912C140.24 339.128 141.947 340.067 143.952 340.728C145.957 341.389 148.197 341.72 150.672 341.72C152.933 341.72 154.981 341.453 156.816 340.92C158.672 340.387 160.251 339.619 161.552 338.616C162.875 337.635 163.888 336.451 164.592 335.064C165.317 333.699 165.68 332.163 165.68 330.456C165.68 329.048 165.371 327.971 164.752 327.224C164.155 326.477 163.28 326.104 162.128 326.104C161.339 326.104 160.624 326.339 159.984 326.808C159.344 327.277 158.907 327.864 158.672 328.568V334.904C158.501 334.947 158.331 334.989 158.16 335.032C157.989 335.075 157.787 335.096 157.552 335.096C156.699 335.096 156.272 334.691 156.272 333.88V319.32H151.024C149.637 319.32 148.389 319.501 147.28 319.864C146.192 320.227 145.264 320.739 144.496 321.4C143.728 322.061 143.131 322.872 142.704 323.832C142.299 324.792 142.096 325.859 142.096 327.032C142.096 327.203 142.096 327.373 142.096 327.544C142.096 327.715 142.107 327.885 142.128 328.056C142.235 327.523 142.427 327.032 142.704 326.584C143.003 326.136 143.365 325.752 143.792 325.432C144.219 325.091 144.699 324.835 145.232 324.664C145.765 324.472 146.331 324.376 146.928 324.376C147.739 324.376 148.475 324.504 149.136 324.76C149.797 325.016 150.363 325.379 150.832 325.848C151.301 326.317 151.664 326.883 151.92 327.544C152.176 328.184 152.304 328.899 152.304 329.688C152.304 330.52 152.165 331.277 151.888 331.96C151.632 332.621 151.259 333.197 150.768 333.688C150.277 334.179 149.691 334.563 149.008 334.84C148.325 335.096 147.568 335.224 146.736 335.224C145.691 335.224 144.752 335.032 143.92 334.648C143.088 334.243 142.384 333.677 141.808 332.952C141.232 332.205 140.784 331.32 140.464 330.296C140.165 329.272 140.016 328.131 140.016 326.872C140.016 325.379 140.272 324.045 140.784 322.872C141.317 321.677 142.064 320.664 143.024 319.832C144.005 319 145.189 318.36 146.576 317.912C147.984 317.464 149.563 317.24 151.312 317.24H164.944ZM146.64 326.392C145.659 326.392 144.848 326.712 144.208 327.352C143.568 327.971 143.248 328.76 143.248 329.72C143.248 330.808 143.557 331.661 144.176 332.28C144.795 332.899 145.616 333.208 146.64 333.208C147.664 333.208 148.464 332.899 149.04 332.28C149.637 331.64 149.936 330.776 149.936 329.688C149.936 328.685 149.627 327.885 149.008 327.288C148.389 326.691 147.6 326.392 146.64 326.392ZM149.904 310.424C150.523 310.424 151.013 310.616 151.376 311C151.76 311.363 151.952 311.864 151.952 312.504C151.952 313.123 151.76 313.624 151.376 314.008C151.013 314.371 150.523 314.552 149.904 314.552C149.285 314.552 148.784 314.371 148.4 314.008C148.016 313.624 147.824 313.123 147.824 312.504C147.824 311.864 148.016 311.363 148.4 311C148.784 310.616 149.285 310.424 149.904 310.424Z" fill="url(#paint6_linear_226_437)"/>
<path d="M274.344 202.024C275.856 202.024 277.08 202.42 278.016 203.212C278.976 204.004 279.456 205.156 279.456 206.668C279.456 208.036 279.012 209.128 278.124 209.944C277.26 210.76 276.072 211.168 274.56 211.168C273.552 211.168 272.7 210.94 272.004 210.484C271.332 210.028 270.852 209.512 270.564 208.936C270.612 210.304 270.984 211.492 271.68 212.5C272.376 213.484 273.336 214.18 274.56 214.588H283.02C283.116 214.876 283.164 215.224 283.164 215.632C283.164 216.544 282.624 217 281.544 217H262.86C262.308 217 261.9 216.904 261.636 216.712C261.372 216.496 261.24 216.112 261.24 215.56V197.092C261.624 196.948 262.044 196.876 262.5 196.876C263.484 196.876 263.976 197.404 263.976 198.46V214.66H270.744C269.904 213.964 269.28 213.112 268.872 212.104C268.464 211.096 268.26 210.052 268.26 208.972C268.26 207.964 268.404 207.04 268.692 206.2C269.004 205.336 269.424 204.604 269.952 204.004C270.504 203.38 271.152 202.9 271.896 202.564C272.64 202.204 273.456 202.024 274.344 202.024ZM274.488 209.116C275.256 209.116 275.88 208.9 276.36 208.468C276.84 208.012 277.08 207.412 277.08 206.668C277.08 205.876 276.828 205.252 276.324 204.796C275.82 204.316 275.148 204.076 274.308 204.076C273.612 204.076 272.952 204.304 272.328 204.76C271.728 205.192 271.296 205.768 271.032 206.488C271.176 207.256 271.56 207.892 272.184 208.396C272.808 208.876 273.576 209.116 274.488 209.116Z" fill="url(#paint7_linear_226_437)"/>
<path d="M263.6 110.4C265.307 110.4 266.827 110.667 268.16 111.2C269.52 111.707 270.693 112.44 271.68 113.4C272.667 114.36 273.453 115.52 274.04 116.88C274.627 118.213 275.013 119.693 275.2 121.32L275.64 125.04C275.853 126.88 276.347 128.267 277.12 129.2C277.893 130.107 279.08 130.56 280.68 130.56C282.2 130.56 283.413 129.987 284.32 128.84C285.227 127.693 285.68 126 285.68 123.76C285.68 120.64 284.973 118.12 283.56 116.2C282.147 114.28 280.107 113.093 277.44 112.64C277.413 112.533 277.4 112.427 277.4 112.32C277.4 112.213 277.4 112.107 277.4 112C277.4 111.547 277.493 111.173 277.68 110.88C277.893 110.56 278.293 110.4 278.88 110.4C280.16 110.4 281.387 110.733 282.56 111.4C283.733 112.067 284.747 112.907 285.6 113.92C286.667 115.147 287.467 116.56 288 118.16C288.56 119.733 288.84 121.56 288.84 123.64C288.84 126.707 288.147 129.08 286.76 130.76C285.373 132.44 283.347 133.28 280.68 133.28C278.12 133.28 276.2 132.587 274.92 131.2C273.64 129.813 272.853 127.893 272.56 125.44L272.12 121.64C271.96 120.36 271.653 119.2 271.2 118.16C270.773 117.093 270.2 116.187 269.48 115.44C268.787 114.693 267.947 114.12 266.96 113.72C265.973 113.293 264.853 113.08 263.6 113.08C262.267 113.08 261.067 113.32 260 113.8C258.933 114.253 258.013 114.92 257.24 115.8C256.493 116.653 255.907 117.693 255.48 118.92C255.08 120.147 254.88 121.507 254.88 123C254.88 123.24 254.88 123.467 254.88 123.68C254.88 123.893 254.893 124.107 254.92 124.32C255.053 123.653 255.293 123.04 255.64 122.48C256.013 121.92 256.467 121.44 257 121.04C257.533 120.613 258.133 120.293 258.8 120.08C259.467 119.84 260.173 119.72 260.92 119.72C261.933 119.72 262.853 119.88 263.68 120.2C264.507 120.52 265.213 120.973 265.8 121.56C266.387 122.147 266.84 122.853 267.16 123.68C267.48 124.48 267.64 125.373 267.64 126.36C267.64 127.4 267.467 128.347 267.12 129.2C266.8 130.027 266.333 130.747 265.72 131.36C265.107 131.973 264.373 132.453 263.52 132.8C262.667 133.12 261.72 133.28 260.68 133.28C259.373 133.28 258.2 133.04 257.16 132.56C256.12 132.053 255.24 131.347 254.52 130.44C253.8 129.507 253.24 128.4 252.84 127.12C252.467 125.84 252.28 124.413 252.28 122.84C252.28 120.973 252.547 119.28 253.08 117.76C253.64 116.213 254.413 114.907 255.4 113.84C256.387 112.747 257.573 111.907 258.96 111.32C260.347 110.707 261.893 110.4 263.6 110.4ZM260.56 122.24C259.333 122.24 258.32 122.64 257.52 123.44C256.72 124.213 256.32 125.2 256.32 126.4C256.32 127.76 256.707 128.827 257.48 129.6C258.253 130.373 259.28 130.76 260.56 130.76C261.84 130.76 262.84 130.373 263.56 129.6C264.307 128.827 264.68 127.747 264.68 126.36C264.68 125.133 264.293 124.147 263.52 123.4C262.747 122.627 261.76 122.24 260.56 122.24Z" fill="url(#paint8_linear_226_437)"/>
<path d="M61.108 375.66C62.404 375.66 63.484 375.984 64.348 376.632C65.236 377.256 65.884 378.144 66.292 379.296C66.772 378.144 67.492 377.256 68.452 376.632C69.412 375.984 70.516 375.66 71.764 375.66C72.94 375.66 74.008 375.9 74.968 376.38C75.952 376.86 76.792 377.556 77.488 378.468C78.184 379.356 78.712 380.472 79.072 381.816C79.456 383.136 79.648 384.636 79.648 386.316C79.648 397.428 73.708 402.984 61.828 402.984H54.304C54.256 402.792 54.208 402.612 54.16 402.444C54.136 402.276 54.124 402.096 54.124 401.904C54.124 400.968 54.664 400.5 55.744 400.5C56.752 400.5 57.736 400.512 58.696 400.536C59.68 400.56 60.688 400.572 61.72 400.572C66.88 400.572 70.696 399.408 73.168 397.08C75.64 394.752 76.876 391.164 76.876 386.316C76.876 383.628 76.396 381.588 75.436 380.196C74.5 378.78 73.24 378.072 71.656 378.072C70.408 378.072 69.412 378.528 68.668 379.44C67.948 380.328 67.588 381.528 67.588 383.04V395.892C67.42 395.94 67.228 395.988 67.012 396.036C66.82 396.084 66.592 396.108 66.328 396.108C65.368 396.108 64.888 395.652 64.888 394.74V382.14C64.888 380.844 64.564 379.836 63.916 379.116C63.268 378.396 62.404 378.036 61.324 378.036C60.244 378.036 59.38 378.396 58.732 379.116C58.084 379.836 57.76 380.844 57.76 382.14V395.892C57.616 395.94 57.436 395.988 57.22 396.036C57.028 396.084 56.8 396.108 56.536 396.108C55.552 396.108 55.06 395.652 55.06 394.74V381.996C55.06 380.052 55.6 378.516 56.68 377.388C57.76 376.236 59.236 375.66 61.108 375.66Z" fill="url(#paint9_linear_226_437)"/>
<path d="M220.48 145.9C220.547 146.1 220.58 146.307 220.58 146.52C220.58 146.973 220.3 147.2 219.74 147.2H218.1V156.84L214.08 160.28C213.813 160.24 213.593 160.14 213.42 159.98C213.26 159.833 213.18 159.647 213.18 159.42C213.18 159.233 213.22 159.08 213.3 158.96C213.38 158.84 213.487 158.727 213.62 158.62L216.58 156.16V147.2H212.32V156.94C212.213 156.967 212.107 156.993 212 157.02C211.893 157.047 211.767 157.06 211.62 157.06C211.073 157.06 210.8 156.807 210.8 156.3V147C210.8 146.653 210.887 146.387 211.06 146.2C211.247 146 211.493 145.9 211.8 145.9H216.32C216.053 145.513 215.847 145.08 215.7 144.6C215.553 144.107 215.48 143.587 215.48 143.04C215.48 142.493 215.56 141.993 215.72 141.54C215.893 141.073 216.127 140.673 216.42 140.34C216.727 140.007 217.087 139.747 217.5 139.56C217.913 139.373 218.367 139.28 218.86 139.28C219.7 139.28 220.38 139.507 220.9 139.96C221.433 140.413 221.7 141.047 221.7 141.86C221.7 142.62 221.46 143.227 220.98 143.68C220.5 144.133 219.84 144.36 219 144.36C218.427 144.36 217.947 144.233 217.56 143.98C217.187 143.727 216.92 143.447 216.76 143.14C216.787 143.753 216.893 144.293 217.08 144.76C217.267 145.227 217.527 145.607 217.86 145.9H220.48ZM218.94 143.22C219.367 143.22 219.713 143.1 219.98 142.86C220.247 142.607 220.38 142.273 220.38 141.86C220.38 141.42 220.24 141.073 219.96 140.82C219.68 140.553 219.307 140.42 218.84 140.42C218.453 140.42 218.093 140.547 217.76 140.8C217.427 141.04 217.18 141.36 217.02 141.76C217.113 142.187 217.327 142.54 217.66 142.82C218.007 143.087 218.433 143.22 218.94 143.22Z" fill="url(#paint10_linear_226_437)"/>
<path d="M265.573 42.3189C265.798 41.5844 266.127 40.9574 266.562 40.4378C267.004 39.8952 267.506 39.484 268.068 39.2041C268.661 38.9083 269.29 38.7368 269.957 38.6896C270.654 38.6265 271.37 38.7072 272.104 38.9316C273.619 39.3945 274.699 40.2138 275.343 41.3895C275.995 42.5423 276.089 43.8761 275.626 45.3909C275.184 46.8369 274.368 47.8672 273.176 48.4818C272.007 49.1034 270.654 49.1792 269.116 48.7093C267.601 48.2464 266.522 47.4271 265.877 46.2514C265.233 45.0757 265.131 43.7649 265.573 42.3189ZM267.983 43.0553C267.731 43.8816 267.753 44.6288 268.051 45.297C268.356 45.9422 268.921 46.3911 269.748 46.6436C270.62 46.9101 271.351 46.8575 271.941 46.4858C272.539 46.0912 272.964 45.4807 273.216 44.6545C273.49 43.7593 273.474 42.9891 273.169 42.3439C272.895 41.6828 272.333 41.2224 271.483 40.9629C270.703 40.7244 269.991 40.7955 269.348 41.1761C268.712 41.5338 268.257 42.1602 267.983 43.0553ZM256.557 51.0072C256.788 50.2497 257.121 49.6112 257.556 49.0916C257.998 48.549 258.5 48.1378 259.062 47.8579C259.632 47.5551 260.25 47.3801 260.917 47.3329C261.613 47.2698 262.329 47.3505 263.064 47.5749C264.578 48.0379 265.658 48.8571 266.303 50.0328C266.947 51.2085 267.038 52.5538 266.575 54.0686C266.133 55.5146 265.317 56.5449 264.125 57.1595C262.963 57.7582 261.614 57.8225 260.076 57.3526C258.561 56.8897 257.478 56.0819 256.826 54.9292C256.205 53.7605 256.115 52.4532 256.557 51.0072ZM258.932 51.7331C258.687 52.5364 258.713 53.2722 259.01 53.9403C259.308 54.6085 259.87 55.0689 260.696 55.3213C261.569 55.5879 262.303 55.5238 262.901 55.1292C263.498 54.7345 263.92 54.1355 264.165 53.3322C264.446 52.4141 264.445 51.636 264.163 50.9978C263.882 50.3595 263.305 49.9072 262.432 49.6407C261.652 49.4022 260.944 49.4618 260.307 49.8194C259.694 50.1841 259.236 50.822 258.932 51.7331ZM268.41 54.5918C268.642 53.8344 268.975 53.1959 269.41 52.6763C269.852 52.1337 270.354 51.7225 270.916 51.4426C271.508 51.1468 272.138 50.9753 272.805 50.9281C273.502 50.865 274.217 50.9457 274.952 51.1701C276.467 51.633 277.535 52.4488 278.157 53.6175C278.801 54.7932 278.892 56.1385 278.429 57.6533C278.212 58.3648 277.886 58.9804 277.451 59.5C277.046 60.0037 276.559 60.4069 275.989 60.7097C275.45 60.9966 274.832 61.1716 274.135 61.2347C273.445 61.2749 272.722 61.1792 271.964 60.9478C271.207 60.7163 270.553 60.3912 270.004 59.9723C269.461 59.5304 269.035 59.0363 268.725 58.4899C268.422 57.9206 268.232 57.3104 268.155 56.6594C268.108 55.9925 268.193 55.3033 268.41 54.5918ZM270.82 55.3283C270.575 56.1316 270.59 56.8638 270.864 57.525C271.162 58.1932 271.736 58.657 272.585 58.9165C273.457 59.183 274.18 59.1155 274.755 58.7138C275.352 58.3192 275.774 57.7202 276.019 56.9169C276.3 55.9988 276.299 55.2206 276.017 54.5824C275.735 53.9442 275.17 53.4953 274.321 53.2358C273.517 52.9903 272.798 53.0464 272.161 53.4041C271.548 53.7688 271.101 54.4102 270.82 55.3283Z" fill="url(#paint11_diamond_226_437)"/>
<path d="M131.071 143.759C133.214 143.037 135.032 142.953 136.525 143.508C138.038 144.057 139.073 145.16 139.632 146.817C139.891 147.585 139.995 148.327 139.943 149.042C139.912 149.751 139.738 150.406 139.423 151.007C139.122 151.582 138.688 152.099 138.123 152.56C137.578 153.014 136.911 153.373 136.123 153.639C135.213 153.946 134.357 154.077 133.554 154.032C132.764 153.961 132.039 153.777 131.376 153.483C130.538 154.936 129.128 155.996 127.147 156.664C126.217 156.978 125.327 157.142 124.477 157.159C123.647 157.168 122.885 157.042 122.189 156.782C121.513 156.514 120.918 156.118 120.404 155.594C119.91 155.062 119.533 154.412 119.274 153.644C118.886 152.492 118.842 151.392 119.142 150.346C119.455 149.272 120.127 148.359 121.157 147.607L119.327 142.179C118.953 141.067 119.271 140.341 120.282 140L133.321 135.606C133.484 135.821 133.616 136.08 133.718 136.383C133.957 137.091 133.641 137.591 132.772 137.884L128.89 139.192L130.495 143.953L131.071 143.759ZM122.003 149.618C121.654 150.051 121.426 150.544 121.32 151.097C121.207 151.631 121.253 152.201 121.457 152.807C121.791 153.798 122.421 154.464 123.346 154.805C124.271 155.146 125.341 155.112 126.554 154.703C127.948 154.233 128.917 153.434 129.46 152.305C130.023 151.17 130.069 149.905 129.599 148.51L128.935 146.539L125.357 147.745C124.588 148.004 123.928 148.282 123.376 148.581C122.837 148.853 122.38 149.198 122.003 149.618ZM132.139 151.537C132.659 151.745 133.176 151.875 133.689 151.927C134.215 151.952 134.771 151.866 135.357 151.668C136.267 151.362 136.913 150.84 137.295 150.104C137.671 149.347 137.701 148.503 137.388 147.573C137.013 146.462 136.319 145.739 135.306 145.405C134.307 145.044 133.069 145.112 131.593 145.609L131.078 145.783L131.803 147.936C132.233 149.21 132.344 150.41 132.139 151.537ZM123.177 146.487C123.547 146.317 123.935 146.164 124.339 146.028C124.737 145.871 125.138 145.725 125.542 145.589L128.301 144.659L126.707 139.928L121.552 141.665L123.177 146.487Z" fill="url(#paint12_linear_226_437)"/>
<path d="M124.133 18.1618C126.195 17.8179 128.157 17.7826 130.019 18.056C131.899 18.3048 133.574 18.8149 135.043 19.5863C136.51 20.3367 137.723 21.3239 138.684 22.5478C139.666 23.7682 140.289 25.1675 140.552 26.7457C140.847 28.5133 140.63 29.9986 139.9 31.2016C139.167 32.3836 138.012 33.1062 136.434 33.3694C135.171 33.58 134.08 33.3942 133.161 32.8121C132.26 32.2055 131.713 31.3235 131.52 30.1661C131.436 29.6611 131.43 29.1753 131.504 28.7089C131.578 28.2424 131.763 27.8005 132.061 27.3831L132.014 27.2937C131.165 27.6515 130.543 28.2636 130.147 29.1299C129.747 29.9752 129.637 30.9344 129.816 32.0076C129.952 32.8282 130.237 33.5594 130.668 34.2012C131.117 34.8184 131.678 35.3304 132.352 35.7372C133.022 36.1229 133.798 36.3718 134.682 36.484C135.57 36.6171 136.529 36.5978 137.56 36.4258C137.833 36.3802 138.074 36.3293 138.281 36.2732C138.488 36.217 138.745 36.1416 139.054 36.0469C139.24 36.2538 139.361 36.5256 139.417 36.8622C139.487 37.2831 139.371 37.6268 139.07 37.8934C138.789 38.1565 138.249 38.3547 137.45 38.488C137.176 38.5337 136.945 38.5723 136.755 38.6038C136.587 38.6319 136.375 38.6565 136.119 38.6776C136.143 39.863 135.959 40.9643 135.567 41.9814C135.174 42.9985 134.601 43.9052 133.847 44.7014C133.114 45.4941 132.198 46.1658 131.101 46.7165C130.024 47.2638 128.802 47.6514 127.434 47.8795C125.898 48.1357 124.474 48.1569 123.162 47.9431C121.872 47.7258 120.73 47.2998 119.737 46.6651C118.748 46.0514 117.929 45.2256 117.28 44.1875C116.635 43.1705 116.196 41.9676 115.965 40.5788C115.712 39.0637 115.756 37.8344 116.096 36.891C114.956 36.6701 114.007 36.1038 113.25 35.192C112.492 34.2802 111.987 33.0668 111.734 31.5517C111.461 29.9104 111.569 28.3567 112.06 26.8907C112.551 25.4246 113.347 24.1023 114.448 22.9238C115.549 21.7453 116.919 20.7491 118.556 19.9353C120.212 19.0969 122.07 18.5057 124.133 18.1618ZM127.88 32.2655C127.736 31.4028 127.741 30.5909 127.895 29.8298C128.046 29.0477 128.319 28.3532 128.716 27.7464C129.108 27.1186 129.606 26.603 130.21 26.1996C130.834 25.7927 131.535 25.5244 132.314 25.3945C132.903 25.2962 133.336 25.3646 133.613 25.5995C133.89 25.8345 134.09 26.1905 134.213 26.6674C133.431 27.4251 133.136 28.3825 133.33 29.5399C133.442 30.2133 133.743 30.7253 134.235 31.0759C134.722 31.4056 135.313 31.5125 136.007 31.3967C136.891 31.2493 137.531 30.8073 137.927 30.0708C138.32 29.3132 138.422 28.3662 138.232 27.2299C138.015 25.9253 137.51 24.7767 136.717 23.7843C135.921 22.7708 134.909 21.9555 133.681 21.3383C132.454 20.7212 131.045 20.318 129.457 20.1288C127.868 19.9396 126.169 19.9958 124.359 20.2976C122.676 20.5784 121.162 21.0362 119.819 21.6712C118.476 22.3061 117.336 23.0585 116.4 23.9284C115.463 24.7983 114.746 25.7506 114.248 26.7852C113.751 27.8199 113.503 28.8668 113.507 29.926C113.773 29.3192 114.173 28.7984 114.706 28.3634C115.236 27.9074 115.942 27.6057 116.826 27.4583C117.458 27.3531 118.066 27.3705 118.652 27.5108C119.237 27.651 119.765 27.8982 120.235 28.2524C120.705 28.6065 121.103 29.0484 121.43 29.5779C121.756 30.1075 121.973 30.6984 122.082 31.3508C122.184 31.961 122.184 32.5449 122.082 33.1026C121.998 33.6357 121.832 34.1285 121.583 34.5809L122.636 40.8937L125.318 40.4463C125.203 40.0114 125.08 39.5344 124.95 39.0154C124.841 38.4928 124.738 37.937 124.64 37.3478C124.176 34.5701 125.06 32.9953 127.29 32.6233C127.396 32.6058 127.501 32.5882 127.606 32.5707C127.711 32.5531 127.82 32.5566 127.932 32.5812L127.88 32.2655ZM131.373 37.4575C131.275 39.853 129.911 41.27 127.281 41.7087L122.041 42.5825C121.473 42.6773 121.147 42.4721 121.063 41.9671L120.089 36.1277C119.503 36.5066 118.874 36.7521 118.2 36.8644C118.067 37.3625 118.004 37.8921 118.011 38.4532C118.022 39.0354 118.078 39.6316 118.18 40.2419C118.541 42.4093 119.509 43.9997 121.084 45.0131C122.68 46.023 124.688 46.3261 127.108 45.9226C129.275 45.5611 130.951 44.7192 132.137 43.3969C133.347 42.0921 133.944 40.4244 133.93 38.3937C133.46 38.2991 132.997 38.1816 132.541 38.0414C132.106 37.8976 131.717 37.703 131.373 37.4575ZM116.705 29.4574C115.906 29.5908 115.276 29.9661 114.817 30.5834C114.379 31.1972 114.228 31.9145 114.365 32.7351C114.512 33.6189 114.893 34.28 115.507 34.7183C116.138 35.1321 116.853 35.2723 117.653 35.139C118.453 35.0056 119.073 34.6426 119.515 34.0498C119.975 33.4325 120.131 32.6819 119.983 31.7981C119.843 30.9564 119.457 30.3287 118.826 29.9149C118.212 29.4766 117.505 29.3241 116.705 29.4574ZM127.212 40.1304C128.054 39.9901 128.694 39.613 129.132 38.9992C129.595 38.4029 129.721 37.4735 129.511 36.2109C129.381 35.4324 129.127 34.88 128.748 34.5539C128.369 34.2277 127.938 34.105 127.454 34.1858C126.928 34.2735 126.579 34.5804 126.407 35.1065C126.232 35.6116 126.218 36.306 126.365 37.1898C126.467 37.8 126.565 38.3243 126.66 38.7627C126.779 39.2186 126.9 39.6851 127.023 40.162L127.212 40.1304ZM124.581 28.436C125.065 28.3553 125.468 28.4395 125.791 28.6884C126.134 28.9339 126.345 29.2881 126.422 29.751C126.499 30.214 126.415 30.6173 126.17 30.961C125.945 31.3013 125.591 31.5117 125.107 31.5924C124.644 31.6696 124.241 31.5855 123.897 31.34C123.553 31.0946 123.343 30.7404 123.266 30.2774C123.189 29.8145 123.273 29.4112 123.518 29.0674C123.764 28.7237 124.118 28.5132 124.581 28.436Z" fill="url(#paint13_diamond_226_437)"/>
<path d="M82.985 94.8561C83.4223 94.8604 83.6388 95.0812 83.6345 95.5186L83.5626 102.75L90.0423 102.815L90.1197 95.023C90.2054 94.9918 90.3016 94.9715 90.4084 94.9619C90.5259 94.9417 90.6273 94.932 90.7127 94.9329C91.1393 94.9371 91.3504 95.1579 91.3461 95.5952L91.2702 103.227C91.2678 103.472 91.2021 103.642 91.0732 103.737C90.9549 103.832 90.7731 103.878 90.5278 103.875L83.0241 103.801C82.7895 103.799 82.6086 103.749 82.4816 103.652C82.3652 103.554 82.3082 103.388 82.3105 103.154L82.3921 94.9462C82.5847 94.8841 82.7824 94.8541 82.985 94.8561ZM86.9061 91.5509C87.2154 91.554 87.4598 91.6524 87.6392 91.8462C87.8294 92.0294 87.9229 92.281 87.9197 92.601C87.9166 92.9103 87.8181 93.16 87.6242 93.3501C87.4411 93.5296 87.1949 93.6179 86.8856 93.6148C86.5762 93.6117 86.3265 93.5185 86.1363 93.3353C85.9462 93.1414 85.8527 92.8898 85.8558 92.5805C85.859 92.2605 85.9575 92.0108 86.1513 91.8314C86.3452 91.6413 86.5968 91.5478 86.9061 91.5509Z" fill="url(#paint14_linear_226_437)"/>
<path d="M91.3903 261.055C92.2169 260.843 92.9862 260.783 93.6982 260.876C94.4198 260.952 95.0792 261.161 95.6763 261.504C96.2734 261.846 96.7986 262.31 97.2517 262.896C97.7014 263.469 98.0726 264.138 98.3651 264.902L99.0404 266.649C99.3723 267.514 99.7835 268.124 100.274 268.48C100.761 268.823 101.392 268.895 102.167 268.697C102.903 268.508 103.42 268.079 103.716 267.411C104.013 266.743 104.022 265.867 103.744 264.782C103.356 263.271 102.701 262.138 101.778 261.384C100.855 260.63 99.7194 260.308 98.3716 260.42C98.3454 260.372 98.3257 260.322 98.3124 260.27C98.2992 260.218 98.2859 260.167 98.2727 260.115C98.2164 259.896 98.2152 259.703 98.2691 259.538C98.3327 259.356 98.5065 259.229 98.7907 259.156C99.4106 258.997 100.046 259.006 100.697 259.183C101.348 259.361 101.943 259.642 102.483 260.026C103.152 260.488 103.715 261.073 104.172 261.782C104.638 262.474 105.001 263.324 105.259 264.331C105.64 265.817 105.6 267.052 105.137 268.038C104.674 269.024 103.797 269.683 102.505 270.014C101.265 270.332 100.249 270.235 99.457 269.722C98.6648 269.21 98.0452 268.377 97.5984 267.226L96.9131 265.44C96.6766 264.84 96.384 264.316 96.0352 263.869C95.6961 263.405 95.3057 263.037 94.8643 262.765C94.4357 262.49 93.9576 262.316 93.4301 262.245C92.8992 262.161 92.3303 262.197 91.7233 262.353C91.0775 262.518 90.5261 262.784 90.0692 263.149C89.6089 263.501 89.2461 263.938 88.9809 264.46C88.7253 264.966 88.5704 265.543 88.5162 266.19C88.4748 266.834 88.5469 267.517 88.7325 268.241C88.7623 268.357 88.7904 268.467 88.8169 268.57C88.8434 268.673 88.8764 268.775 88.9158 268.875C88.8976 268.535 88.9376 268.209 89.0359 267.894C89.1472 267.577 89.3071 267.288 89.5157 267.028C89.721 266.755 89.9718 266.525 90.2682 266.339C90.5613 266.14 90.8886 265.994 91.2502 265.902C91.741 265.776 92.2065 265.739 92.6466 265.791C93.0867 265.843 93.4853 265.975 93.8423 266.186C94.1993 266.398 94.5067 266.684 94.7644 267.044C95.0187 267.392 95.2072 267.805 95.3298 268.283C95.459 268.786 95.4927 269.266 95.4308 269.723C95.3785 270.163 95.242 270.569 95.0211 270.943C94.8003 271.316 94.5047 271.64 94.1345 271.913C93.761 272.174 93.3224 272.37 92.8187 272.499C92.1858 272.661 91.5878 272.691 91.0244 272.587C90.4578 272.471 89.9438 272.238 89.4824 271.889C89.0178 271.526 88.6091 271.06 88.2563 270.489C87.9165 269.916 87.6488 269.248 87.4534 268.486C87.2214 267.582 87.1402 266.729 87.2097 265.926C87.2887 265.108 87.5009 264.379 87.8463 263.74C88.1883 263.087 88.6587 262.533 89.2574 262.077C89.8527 261.607 90.5637 261.267 91.3903 261.055ZM91.389 267.167C90.7949 267.319 90.3538 267.639 90.0657 268.126C89.7743 268.6 89.7032 269.127 89.8523 269.708C90.0213 270.367 90.3411 270.836 90.8117 271.114C91.2823 271.392 91.8276 271.452 92.4475 271.293C93.0674 271.134 93.5037 270.823 93.7563 270.359C94.0219 269.891 94.0685 269.322 93.8962 268.65C93.7438 268.056 93.434 267.626 92.9667 267.361C92.496 267.082 91.9701 267.018 91.389 267.167ZM93.733 256.262C94.1075 256.166 94.4344 256.206 94.7136 256.382C95.0023 256.542 95.1964 256.816 95.2958 257.204C95.3919 257.578 95.3535 257.911 95.1807 258.203C95.0175 258.479 94.7486 258.665 94.374 258.761C93.9995 258.858 93.6678 258.826 93.379 258.666C93.0869 258.493 92.8928 258.219 92.7967 257.845C92.6974 257.457 92.7357 257.124 92.9119 256.845C93.0847 256.553 93.3584 256.358 93.733 256.262Z" fill="url(#paint15_linear_226_437)"/>
<path d="M232.428 363.876C233.412 363.876 233.904 364.392 233.904 365.424V381.696H241.356C241.188 380.544 241.044 379.284 240.924 377.916C240.828 376.524 240.78 375 240.78 373.344C240.78 370.104 241.392 367.68 242.616 366.072C243.864 364.464 245.688 363.66 248.088 363.66C249.12 363.66 250.068 363.876 250.932 364.308C251.82 364.716 252.576 365.304 253.2 366.072C253.824 366.84 254.304 367.776 254.64 368.88C255 369.96 255.18 371.16 255.18 372.48C255.18 376.152 254.292 378.96 252.516 380.904C250.764 382.848 248.148 383.88 244.668 384C245.196 385.104 245.94 385.872 246.9 386.304C247.884 386.736 249.024 386.952 250.32 386.952C250.896 386.952 251.364 386.904 251.724 386.808C251.988 387.072 252.12 387.444 252.12 387.924C252.12 388.812 251.316 389.256 249.708 389.256C249.492 389.256 249.276 389.244 249.06 389.22C248.868 389.22 248.676 389.208 248.484 389.184C248.172 391.368 247.404 392.988 246.18 394.044C244.98 395.1 243.36 395.628 241.32 395.628C240.312 395.628 239.4 395.472 238.584 395.16C237.768 394.872 237.072 394.452 236.496 393.9C235.92 393.348 235.476 392.688 235.164 391.92C234.852 391.152 234.696 390.3 234.696 389.364C234.696 388.356 234.852 387.552 235.164 386.952C235.5 386.352 235.98 386.052 236.604 386.052C237.156 386.052 237.6 386.292 237.936 386.772C237.744 387.084 237.588 387.468 237.468 387.924C237.372 388.38 237.324 388.872 237.324 389.4C237.324 390.576 237.696 391.524 238.44 392.244C239.208 392.964 240.204 393.324 241.428 393.324C242.676 393.324 243.696 392.928 244.488 392.136C245.304 391.344 245.796 390.12 245.964 388.464C244.956 388.056 244.104 387.456 243.408 386.664C242.736 385.896 242.232 385.008 241.896 384H233.184C231.864 384 231.204 383.4 231.204 382.2V364.092C231.588 363.948 231.996 363.876 232.428 363.876ZM244.308 381.696C245.508 381.696 246.6 381.528 247.584 381.192C248.568 380.856 249.408 380.316 250.104 379.572C250.824 378.828 251.376 377.88 251.76 376.728C252.144 375.552 252.336 374.148 252.336 372.516C252.336 370.308 251.928 368.688 251.112 367.656C250.32 366.6 249.312 366.072 248.088 366.072C245.064 366.072 243.54 368.604 243.516 373.668C243.516 374.484 243.528 375.24 243.552 375.936C243.576 376.608 243.612 377.268 243.66 377.916C243.708 378.54 243.756 379.164 243.804 379.788C243.876 380.388 243.948 381.024 244.02 381.696H244.308Z" fill="url(#paint16_linear_226_437)"/>
<defs>
<linearGradient id="paint0_linear_226_437" x1="23.1849" y1="33.919" x2="40.962" y2="85.9669" gradientUnits="userSpaceOnUse">
<stop offset="0.26" stop-color="#262660"/>
<stop offset="1" stop-color="#9B9BFF" stop-opacity="0.62"/>
</linearGradient>
<linearGradient id="paint1_linear_226_437" x1="287.737" y1="271.507" x2="261.125" y2="326.396" gradientUnits="userSpaceOnUse">
<stop/>
<stop offset="0.495" stop-color="#9B9BFF"/>
<stop offset="1" stop-color="#1F213A"/>
</linearGradient>
<linearGradient id="paint2_linear_226_437" x1="13.9719" y1="275.762" x2="40.6685" y2="323.849" gradientUnits="userSpaceOnUse">
<stop/>
<stop offset="1" stop-color="#9DACFF"/>
</linearGradient>
<linearGradient id="paint3_linear_226_437" x1="181.5" y1="56" x2="181.5" y2="111" gradientUnits="userSpaceOnUse">
<stop/>
<stop offset="1" stop-color="#9B9BFF"/>
</linearGradient>
<linearGradient id="paint4_linear_226_437" x1="195.005" y1="188.187" x2="204.718" y2="258.171" gradientUnits="userSpaceOnUse">
<stop offset="0.21" stop-color="#8B8BFC"/>
<stop offset="0.765" stop-color="#1F213A"/>
</linearGradient>
<radialGradient id="paint5_radial_226_437" cx="0" cy="0" r="1" gradientUnits="userSpaceOnUse" gradientTransform="translate(44.0532 178.358) rotate(54.5908) scale(37)">
<stop offset="0.12" stop-color="#9B9BFF" stop-opacity="0.62"/>
<stop offset="1"/>
</radialGradient>
<linearGradient id="paint6_linear_226_437" x1="150" y1="301" x2="150" y2="350" gradientUnits="userSpaceOnUse">
<stop offset="0.075" stop-color="#9B9BFF"/>
<stop offset="0.295" stop-color="#7C7CCC"/>
<stop offset="1"/>
</linearGradient>
<linearGradient id="paint7_linear_226_437" x1="271" y1="179" x2="271" y2="234" gradientUnits="userSpaceOnUse">
<stop stop-color="#7979DF"/>
<stop offset="1" stop-color="#455A64"/>
</linearGradient>
<linearGradient id="paint8_linear_226_437" x1="270.5" y1="91" x2="270.5" y2="152" gradientUnits="userSpaceOnUse">
<stop offset="0.43" stop-color="#5D5D99"/>
<stop offset="1" stop-color="#2C2C55"/>
</linearGradient>
<linearGradient id="paint9_linear_226_437" x1="67" y1="358" x2="67" y2="413" gradientUnits="userSpaceOnUse">
<stop stop-color="#9B9BFF"/>
<stop offset="1" stop-color="#1F213A"/>
</linearGradient>
<linearGradient id="paint10_linear_226_437" x1="215" y1="136" x2="215" y2="167" gradientUnits="userSpaceOnUse">
<stop offset="0.575" stop-color="#5D5D99"/>
<stop offset="0.9999" stop-color="#1F1F33"/>
</linearGradient>
<radialGradient id="paint11_diamond_226_437" cx="0" cy="0" r="1" gradientUnits="userSpaceOnUse" gradientTransform="translate(269.206 48.9373) rotate(106.992) scale(27.5 12.5)">
<stop offset="0.205" stop-color="#6C6CAF"/>
<stop offset="1" stop-color="#303030"/>
</radialGradient>
<linearGradient id="paint12_linear_226_437" x1="120.372" y1="122.832" x2="136.02" y2="169.266" gradientUnits="userSpaceOnUse">
<stop stop-color="#9B9BFF"/>
<stop offset="1" stop-color="#5D5D99"/>
</linearGradient>
<radialGradient id="paint13_diamond_226_437" cx="0" cy="0" r="1" gradientUnits="userSpaceOnUse" gradientTransform="translate(127.337 36.6001) rotate(80.5317) scale(15.2297 9.94595)">
<stop stop-color="#9B9BFF"/>
<stop offset="0.9999" stop-color="#40466A"/>
</radialGradient>
<linearGradient id="paint14_linear_226_437" x1="87.0329" y1="86.8399" x2="86.7844" y2="111.839" gradientUnits="userSpaceOnUse">
<stop offset="0.61" stop-color="#5D5D99"/>
<stop offset="1" stop-color="#1F1F33"/>
</linearGradient>
<linearGradient id="paint15_linear_226_437" x1="92.564" y1="250.74" x2="100.267" y2="280.767" gradientUnits="userSpaceOnUse">
<stop offset="1" stop-color="#5E6799"/>
</linearGradient>
<linearGradient id="paint16_linear_226_437" x1="243" y1="346" x2="243" y2="401" gradientUnits="userSpaceOnUse">
<stop/>
<stop offset="1" stop-color="#9B9BFF"/>
</linearGradient>
</defs>
</svg>
