<svg width="402" height="874" viewBox="0 0 402 874" fill="none" xmlns="http://www.w3.org/2000/svg">
<g clip-path="url(#clip0_304_393)">
<rect width="402" height="874"/>
<g filter="url(#filter0_d_304_393)">
<path fill-rule="evenodd" clip-rule="evenodd" d="M-60.9209 197.694C-32.3286 143.106 42.4798 143.523 70.5186 198.428L95.2022 246.762L151.315 240.555C207.824 234.304 250.069 293.918 228.158 348.992L207.471 400.987L251.831 444.001C290.711 481.702 276.227 549.471 225.736 566.094L167.771 585.178L164.67 648.575C161.96 703.983 103.297 735.661 58.8273 705.73L1.01199 666.816L-58.5477 706.611C-102.862 736.22 -161.143 704.867 -164.174 649.789L-167.743 584.927L-224.366 566.653C-275.859 550.035 -290.028 480.516 -249.527 443.207L-205.585 402.729L-226.582 347.187C-247.305 292.369 -205.283 234.004 -149.429 240.028L-86.6414 246.8L-60.9209 197.694ZM-102.305 276.704L-152.485 271.292C-185.997 267.678 -211.21 302.697 -198.776 335.588L-181.709 380.734L-163.206 363.689C-143.594 345.623 -127.131 324.103 -114.556 300.095L-102.305 276.704ZM-169.989 411.738L-143.48 387.319C-121.253 366.844 -102.595 342.454 -88.3442 315.246L-69.9829 280.19L-21.0111 285.472C-3.52132 287.359 14.1076 287.335 31.5927 285.4L78.3422 280.229L96.9021 316.572C110.277 342.762 127.718 366.423 148.507 386.582L171.793 409.162L159.929 438.982C148.639 467.359 142.099 497.572 140.597 528.287L138.961 561.727L99.2461 574.802C77.9587 581.811 57.6418 591.731 38.8184 604.308L1.07098 629.53L-35.3013 605.048C-54.7275 591.973 -75.7572 581.736 -97.8115 574.618L-139.075 561.301L-141.071 525.042C-142.641 496.508 -148.56 468.424 -158.601 441.861L-169.989 411.738ZM-193.865 433.733L-229.801 466.837C-252.693 487.925 -244.685 527.218 -215.58 536.611L-169.585 551.455L-170.939 526.855C-172.324 501.679 -177.546 476.899 -186.407 453.46L-193.865 433.733ZM-137.233 594.774L-134.306 647.976C-132.593 679.107 -99.651 696.828 -74.6041 680.092L-26.7588 648.124L-51.4415 631.511C-68.5823 619.974 -87.1379 610.941 -106.598 604.661L-137.233 594.774ZM28.8417 648.221L74.9676 679.267C100.103 696.185 133.26 678.28 134.792 646.962L137.324 595.202L108.193 604.792C89.4105 610.976 71.4838 619.73 54.8749 630.827L28.8417 648.221ZM169.409 551.703L216.789 536.104C245.327 526.708 253.514 488.404 231.538 467.095L195.192 431.851L187.533 451.101C177.572 476.14 171.801 502.798 170.475 529.9L169.409 551.703ZM184.072 378.298L200.554 336.873C213.7 303.829 188.353 268.06 154.448 271.811L110.478 276.674L123.266 301.715C135.067 324.824 150.456 345.701 168.799 363.488L184.072 378.298ZM63.0664 250.317L28.4597 254.145C13.0316 255.851 -2.52329 255.873 -17.9555 254.208L-54.3197 250.286L-34.7088 212.845C-17.5535 180.092 27.3316 180.342 44.1549 213.285L63.0664 250.317Z" fill="url(#paint0_linear_304_393)" fill-opacity="0.07"/>
<path fill-rule="evenodd" clip-rule="evenodd" d="M-60.9209 197.694C-32.3286 143.106 42.4798 143.523 70.5186 198.428L95.2022 246.762L151.315 240.555C207.824 234.304 250.069 293.918 228.158 348.992L207.471 400.987L251.831 444.001C290.711 481.702 276.227 549.471 225.736 566.094L167.771 585.178L164.67 648.575C161.96 703.983 103.297 735.661 58.8273 705.73L1.01199 666.816L-58.5477 706.611C-102.862 736.22 -161.143 704.867 -164.174 649.789L-167.743 584.927L-224.366 566.653C-275.859 550.035 -290.028 480.516 -249.527 443.207L-205.585 402.729L-226.582 347.187C-247.305 292.369 -205.283 234.004 -149.429 240.028L-86.6414 246.8L-60.9209 197.694ZM-102.305 276.704L-152.485 271.292C-185.997 267.678 -211.21 302.697 -198.776 335.588L-181.709 380.734L-163.206 363.689C-143.594 345.623 -127.131 324.103 -114.556 300.095L-102.305 276.704ZM-169.989 411.738L-143.48 387.319C-121.253 366.844 -102.595 342.454 -88.3442 315.246L-69.9829 280.19L-21.0111 285.472C-3.52132 287.359 14.1076 287.335 31.5927 285.4L78.3422 280.229L96.9021 316.572C110.277 342.762 127.718 366.423 148.507 386.582L171.793 409.162L159.929 438.982C148.639 467.359 142.099 497.572 140.597 528.287L138.961 561.727L99.2461 574.802C77.9587 581.811 57.6418 591.731 38.8184 604.308L1.07098 629.53L-35.3013 605.048C-54.7275 591.973 -75.7572 581.736 -97.8115 574.618L-139.075 561.301L-141.071 525.042C-142.641 496.508 -148.56 468.424 -158.601 441.861L-169.989 411.738ZM-193.865 433.733L-229.801 466.837C-252.693 487.925 -244.685 527.218 -215.58 536.611L-169.585 551.455L-170.939 526.855C-172.324 501.679 -177.546 476.899 -186.407 453.46L-193.865 433.733ZM-137.233 594.774L-134.306 647.976C-132.593 679.107 -99.651 696.828 -74.6041 680.092L-26.7588 648.124L-51.4415 631.511C-68.5823 619.974 -87.1379 610.941 -106.598 604.661L-137.233 594.774ZM28.8417 648.221L74.9676 679.267C100.103 696.185 133.26 678.28 134.792 646.962L137.324 595.202L108.193 604.792C89.4105 610.976 71.4838 619.73 54.8749 630.827L28.8417 648.221ZM169.409 551.703L216.789 536.104C245.327 526.708 253.514 488.404 231.538 467.095L195.192 431.851L187.533 451.101C177.572 476.14 171.801 502.798 170.475 529.9L169.409 551.703ZM184.072 378.298L200.554 336.873C213.7 303.829 188.353 268.06 154.448 271.811L110.478 276.674L123.266 301.715C135.067 324.824 150.456 345.701 168.799 363.488L184.072 378.298ZM63.0664 250.317L28.4597 254.145C13.0316 255.851 -2.52329 255.873 -17.9555 254.208L-54.3197 250.286L-34.7088 212.845C-17.5535 180.092 27.3316 180.342 44.1549 213.285L63.0664 250.317Z" fill="url(#paint1_linear_304_393)" fill-opacity="0.07"/>
</g>
</g>
<defs>
<filter id="filter0_d_304_393" x="-323" y="146.76" width="647" height="661" filterUnits="userSpaceOnUse" color-interpolation-filters="sRGB">
<feFlood flood-opacity="0" result="BackgroundImageFix"/>
<feColorMatrix in="SourceAlpha" type="matrix" values="0 0 0 0 0 0 0 0 0 0 0 0 0 0 0 0 0 0 127 0" result="hardAlpha"/>
<feOffset dy="39.76"/>
<feGaussianBlur stdDeviation="25"/>
<feColorMatrix type="matrix" values="0 0 0 0 0 0 0 0 0 0 0 0 0 0 0 0 0 0 0.05 0"/>
<feBlend mode="normal" in2="BackgroundImageFix" result="effect1_dropShadow_304_393"/>
<feBlend mode="normal" in="SourceGraphic" in2="effect1_dropShadow_304_393" result="shape"/>
</filter>
<linearGradient id="paint0_linear_304_393" x1="-216.897" y1="284.16" x2="214.394" y2="280.873" gradientUnits="userSpaceOnUse">
<stop offset="0.395" stop-color="#9B9BFF"/>
<stop offset="0.99" stop-color="#9B9BFF"/>
</linearGradient>
<linearGradient id="paint1_linear_304_393" x1="-34.5641" y1="650.68" x2="98.5394" y2="338.704" gradientUnits="userSpaceOnUse">
<stop stop-color="#9DACFF"/>
<stop offset="1" stop-color="#9B9BFF"/>
</linearGradient>
<clipPath id="clip0_304_393">
<rect width="402" height="874"/>
</clipPath>
</defs>
</svg>
