<svg width="204" height="34" viewBox="0 0 204 34" fill="none" xmlns="http://www.w3.org/2000/svg">
<path d="M13.3066 27H6.36328V8.5957H0.140625V3.00586H19.5293V8.5957H13.3066V27ZM21.252 27V8.10352H27.9668V11.0566H28.3008C28.5645 9.77344 29.9707 7.83984 32.4141 7.83984C33.3809 7.83984 33.9609 7.89258 34.3301 8.0332V13.6582C33.8906 13.4648 32.959 13.377 32.0273 13.377C29.2852 13.377 28.1953 14.8887 28.1953 17.4199V27H21.252ZM55.4766 8.10352C52.7168 17.0508 50.0449 25.4531 49.957 25.6816L49.4824 26.9297C47.6543 31.7461 44.8242 33.627 39.5859 33.627C38.4961 33.627 37.0195 33.5039 36.3516 33.3633V28.8984C36.6855 28.9688 37.4062 29.0215 38.0918 29.0215C40.2012 29.0215 41.1504 28.4062 41.2031 26.9648L41.2383 26.7539L35.2617 8.10352H42.6445L45.2812 21.7266H45.5449L48.3574 8.10352H55.4766ZM74.8477 27H68.3262L62.3496 3.00586H69.5391L72.0352 17.9824H72.3516L75.9199 3.00586H81.3516L84.9199 17.9824H85.2539L87.7148 3.00586H94.9043L88.9277 27H82.4238L78.7676 13.2363H78.5215L74.8477 27ZM97.207 3.25195C97.207 1.35352 98.7715 0.175781 100.705 0.175781C102.621 0.175781 104.186 1.35352 104.186 3.25195C104.186 5.18555 102.621 6.36328 100.705 6.36328C98.7715 6.36328 97.207 5.18555 97.207 3.25195ZM97.3477 27V8.10352H104.045V27H97.3477ZM113.906 7.92773C116.543 7.92773 118.512 9.1582 119.197 11.0566H119.514V1.74023H126.246V27H119.531V23.9941H119.215C118.512 25.9102 116.543 27.1758 113.906 27.1758C109.723 27.1758 107.104 23.9766 107.104 18.2461V16.8223C107.104 11.0742 109.74 7.92773 113.906 7.92773ZM116.771 13.0254C115.207 13.0254 114.064 14.3262 114.064 17.0156V18.1055C114.064 20.7949 115.207 22.0957 116.771 22.0957C118.371 22.0957 119.514 20.7949 119.514 18.1055V17.0156C119.514 14.3438 118.354 13.0254 116.771 13.0254ZM138.691 29.373C140.625 29.373 141.557 28.2656 141.557 26.2441V23.6777H141.24C140.59 25.3828 138.727 26.6484 135.984 26.6484C131.854 26.6484 129.234 23.5898 129.234 17.6133V16.9629C129.234 10.9863 131.854 7.92773 135.984 7.92773C138.656 7.92773 140.59 9.17578 141.24 11.0566H141.574V8.10352H148.271V26.9121C148.271 32.4844 142.84 33.9082 138.533 33.9082C132.311 33.9082 129.691 31.0605 129.621 27.8965H135.914C136.178 28.9512 137.32 29.373 138.691 29.373ZM138.885 13.0254C137.285 13.0254 136.195 14.3438 136.195 17.0156V18.0176C136.195 20.707 137.285 22.0254 138.885 22.0254C140.467 22.0254 141.557 20.707 141.557 18.0176V17.0156C141.557 14.3438 140.449 13.0254 138.885 13.0254ZM160.436 27.3691C154.951 27.3691 151.049 24.416 151.049 18.123V16.875C151.049 10.6523 155.197 7.73438 160.172 7.73438C165.586 7.73438 169.207 11.1797 169.207 16.8926V18.8613H157.57V19.6172C157.57 21.5332 158.924 22.5527 160.4 22.5527C161.877 22.5527 163.072 21.832 163.143 20.584H169.137C169.031 23.502 166.605 27.3691 160.436 27.3691ZM157.57 15.293H162.826C162.826 13.5703 161.824 12.375 160.242 12.375C158.66 12.375 157.57 13.5703 157.57 15.293ZM173.865 8.10352V3.84961H180.316V8.10352H183.885V13.0957H180.316V20.1621C180.316 21.5684 181.178 22.1309 182.654 22.1309C183.146 22.1309 183.709 22.1133 183.902 22.0957V26.8418C183.41 26.9121 182.373 27.0176 181.037 27.0176C176.045 27.0176 173.672 25.6289 173.672 21.5859V13.0957H170.842V8.10352H173.865ZM186.539 13.9746C186.539 9.52734 190.441 7.73438 194.871 7.73438C199.424 7.73438 202.746 9.65039 202.746 13.6406H196.963C196.822 12.7617 196.225 11.9355 194.783 11.9355C193.5 11.9355 192.867 12.6211 192.867 13.377C192.867 14.959 195.873 15.0645 198.018 15.4512C201.428 16.0664 203.432 17.5781 203.432 20.8301C203.432 24.8379 200.355 27.3691 194.66 27.3691C188.895 27.3691 186.117 24.7676 186.117 21.4102H192.604C192.691 22.3945 193.588 23.1328 194.959 23.1328C196.277 23.1328 196.963 22.4648 196.963 21.6914C196.963 20.2852 194.484 20.1973 192.357 19.7578C189.141 19.0723 186.539 17.5605 186.539 13.9746Z" fill="url(#paint0_linear_171_8)"/>
<defs>
<linearGradient id="paint0_linear_171_8" x1="0" y1="14.5" x2="205" y2="14.5" gradientUnits="userSpaceOnUse">
<stop offset="0.1" stop-color="#2C2C6A"/>
<stop offset="1" stop-color="#9B9BFF"/>
</linearGradient>
</defs>
</svg>
